<?xml version="1.0" standalone="no"?>
<!DOCTYPE svg PUBLIC "-//W3C//DTD SVG 20010904//EN"
 "http://www.w3.org/TR/2001/REC-SVG-20010904/DTD/svg10.dtd">
<svg version="1.0" xmlns="http://www.w3.org/2000/svg"
 width="1237.000000pt" height="769.000000pt" viewBox="0 0 1237.000000 769.000000"
 preserveAspectRatio="xMidYMid meet">

<g transform="translate(0.000000,769.000000) scale(0.100000,-0.100000)"
fill="#000000" stroke="none">
<path d="M4505 6589 c-225 -49 -434 -93 -464 -100 l-54 -11 44 -28 c65 -41
135 -118 159 -175 12 -27 26 -84 32 -127 20 -138 -25 -254 -137 -356 -99 -91
-204 -124 -331 -104 -154 24 -255 97 -315 224 -29 63 -34 86 -37 168 -5 109
13 175 67 254 18 25 26 44 19 41 -23 -8 -569 -125 -584 -125 -8 0 -14 9 -14
20 0 31 -36 44 -81 31 -38 -12 -54 -35 -43 -64 4 -11 -1 -18 -18 -22 -12 -2
-63 -13 -111 -24 -49 -11 -91 -22 -94 -25 -5 -5 110 -561 352 -1696 52 -239
92 -436 91 -438 -5 -4 -203 137 -336 241 l-135 105 -1 243 c-1 169 -6 267 -17
319 l-14 75 48 61 c54 68 159 231 159 247 0 6 -24 -29 -54 -76 -59 -93 -144
-207 -156 -207 -4 0 -10 14 -14 30 -3 17 -17 60 -31 95 l-26 64 55 65 c62 73
98 138 132 240 36 105 28 104 -11 -2 -18 -51 -45 -111 -58 -135 -31 -51 -117
-152 -128 -151 -5 1 -16 2 -24 3 -12 1 -15 15 -15 62 0 48 5 67 24 92 53 69
59 220 16 361 -19 60 -20 74 -10 113 39 137 -141 265 -403 289 -132 12 -245
-25 -328 -106 -78 -75 -87 -149 -39 -306 45 -146 56 -220 43 -292 -6 -32 -48
-152 -92 -265 -127 -323 -159 -463 -132 -565 28 -100 159 -191 321 -222 30 -6
65 -13 78 -16 12 -2 28 -17 34 -32 7 -15 20 -39 31 -54 l18 -28 -51 -82 c-60
-99 -105 -212 -119 -299 -15 -96 -29 -339 -33 -564 l-3 -200 72 -14 c48 -10
74 -20 77 -30 3 -9 19 -98 35 -198 62 -373 74 -608 35 -685 -9 -18 -45 -71
-79 -118 -163 -220 -297 -516 -385 -853 -19 -71 -29 -92 -49 -105 -37 -22 -91
-73 -103 -97 -6 -11 -7 -17 -3 -13 4 4 60 -37 126 -91 l118 -98 107 -17 c60
-9 113 -21 120 -27 17 -14 22 1 13 37 -6 22 -19 36 -40 45 -29 12 -33 11 -50
-10 -11 -13 -19 -19 -19 -13 0 5 7 15 16 23 14 11 10 16 -28 35 -36 18 -51 36
-88 103 -33 60 -50 81 -65 81 -31 0 -65 28 -65 53 0 31 60 240 108 372 82 231
160 380 296 568 103 144 111 173 103 357 -7 138 -25 279 -64 503 -14 81 -23
150 -21 153 3 2 52 -2 109 -10 57 -8 139 -17 182 -21 l77 -7 0 -36 c0 -99 -22
-431 -35 -537 -46 -365 -71 -425 -326 -786 -76 -108 -166 -243 -200 -300 -66
-109 -139 -263 -138 -289 0 -8 6 1 13 20 48 129 150 301 333 561 198 283 238
353 272 481 43 157 76 428 87 716 7 170 7 172 30 172 20 0 25 -10 48 -107 82
-344 111 -588 95 -798 -17 -237 -8 -530 27 -865 30 -285 29 -274 3 -311 -17
-24 -24 -51 -27 -94 -4 -60 -4 -60 24 -62 16 -1 134 -5 262 -9 157 -5 232 -11
232 -18 0 -6 5 -3 11 7 17 29 1 56 -39 66 -87 22 -110 22 -122 4 -10 -16 -10
-15 -5 5 7 25 -12 31 -34 10 -10 -11 -11 -10 -6 2 4 11 -13 30 -55 60 -33 25
-69 52 -80 60 -19 15 -19 18 0 270 73 966 84 1421 44 1806 l-6 61 32 13 32 13
-7 61 c-37 354 -114 704 -195 883 -17 36 -29 68 -27 69 2 2 102 -52 223 -120
202 -114 314 -192 314 -220 0 -17 88 -54 115 -48 14 2 25 8 25 13 0 5 8 5 17
2 12 -5 15 -2 10 10 -5 13 -1 17 14 17 15 0 19 5 15 15 -3 8 -3 15 0 15 4 0
302 63 663 140 361 77 855 182 1099 233 243 52 445 97 449 100 3 4 -33 190
-81 414 -47 225 -86 411 -86 415 0 4 20 -6 44 -22 64 -44 122 -62 201 -62 148
-2 302 89 368 218 9 17 21 61 27 98 42 264 -176 488 -437 447 -91 -14 -165
-54 -240 -130 -34 -36 -64 -63 -66 -60 -2 2 -50 222 -106 489 -56 267 -105
495 -108 508 -3 12 -12 21 -22 21 -9 -1 -200 -41 -426 -90z m-1643 -307 c-7
-2 -9 -16 -7 -35 l5 -32 -15 30 -16 30 4 -45 5 -45 -19 40 -18 40 -2 -35 -1
-35 -14 33 c-17 40 -7 59 34 64 30 4 63 -3 44 -10z m-732 -154 c175 -54 273
-143 253 -230 -11 -49 -12 -50 -47 -14 -38 41 -91 66 -138 66 -46 0 -53 -8
-55 -62 -3 -57 -31 -132 -72 -197 -27 -41 -38 -49 -71 -55 -39 -6 -60 -27 -60
-61 0 -21 48 -65 72 -65 31 0 31 -24 0 -122 -17 -51 -35 -112 -41 -135 -10
-36 -16 -43 -37 -43 -36 0 -99 -35 -122 -67 -30 -45 -42 -113 -42 -251 0 -156
33 -353 78 -471 4 -12 -3 -13 -44 -8 -137 16 -289 97 -334 177 -21 39 -25 57
-24 130 1 108 23 185 125 448 125 320 129 350 75 539 -61 212 -60 252 6 328
101 114 289 151 478 93z m115 -199 c48 -14 130 -91 103 -97 -10 -2 -18 -8 -18
-13 0 -6 8 -8 19 -4 23 7 38 -23 16 -31 -22 -9 -18 -27 5 -21 28 7 43 -52 44
-178 1 -116 -18 -170 -69 -194 -57 -27 -184 15 -268 89 -25 22 -52 40 -60 40
-20 0 -67 39 -67 56 0 26 38 55 65 48 21 -5 29 1 61 52 45 70 83 175 84 227 0
42 13 46 85 26z m-73 -523 l63 -33 7 -65 c3 -36 13 -76 22 -89 26 -40 66 -158
66 -194 0 -46 -35 -56 -94 -27 -47 22 -172 120 -225 176 l-35 36 32 110 c18
60 37 122 42 136 l11 27 24 -23 c13 -12 52 -37 87 -54z m176 -91 l-3 -60 -38
-6 c-41 -7 -40 -8 -52 81 l-5 45 50 0 51 0 -3 -60z m-358 -215 c20 -14 62 -85
135 -229 171 -336 179 -346 528 -614 305 -235 360 -266 500 -284 l62 -8 -54
-5 c-30 -3 -56 -10 -58 -17 -3 -7 21 -29 51 -49 67 -44 74 -55 13 -19 -24 14
-47 25 -50 25 -17 0 -4 -17 28 -39 20 -13 33 -26 31 -29 -3 -2 -18 5 -34 17
-41 29 -50 26 -21 -5 23 -25 23 -26 2 -15 -30 15 -38 14 -23 -4 29 -35 -5 -10
-74 54 -44 41 -111 88 -163 117 -344 187 -552 323 -668 440 -210 209 -354 434
-363 565 -4 54 -2 60 26 89 37 36 89 41 132 10z m663 -2022 c3 -29 11 -153 18
-274 14 -243 7 -477 -31 -1074 -37 -583 -49 -714 -67 -728 -17 -12 -49 -8 -67
9 -14 13 -53 406 -67 671 -10 186 -10 278 -1 430 17 273 -5 477 -88 823 -15
66 -27 121 -26 122 1 1 42 8 91 17 50 8 115 23 145 34 85 30 87 30 93 -30z
m-990 -2193 c-3 -9 -8 -14 -10 -11 -3 3 -2 9 2 15 9 16 15 13 8 -4z"/>
<path d="M2214 5800 c-26 -10 -54 -48 -53 -70 0 -13 1 -13 6 0 10 26 46 60 64
60 10 0 21 5 24 10 7 12 -12 12 -41 0z"/>
<path d="M2241 5741 c-9 -6 -10 -11 -2 -15 13 -8 31 1 31 15 0 11 -11 11 -29
0z"/>
<path d="M2317 5723 c-18 -18 6 -93 30 -93 23 0 27 30 10 66 -16 33 -27 41
-40 27z m43 -64 c0 -10 -5 -19 -10 -19 -12 0 -30 43 -30 68 1 25 40 -24 40
-49z"/>
<path d="M2371 5573 c-7 -14 -12 -15 -25 -4 -15 13 -56 7 -56 -8 0 -23 44 -61
70 -61 24 0 30 6 40 35 16 48 -6 78 -29 38z"/>
<path d="M8280 5823 l0 -576 -58 55 c-118 113 -260 155 -422 124 -200 -38
-334 -158 -374 -336 -57 -248 40 -477 241 -577 70 -34 82 -37 187 -41 170 -7
263 25 368 126 l58 55 0 -556 0 -557 -606 0 -607 0 64 -47 c132 -100 193 -209
192 -348 -1 -219 -114 -369 -327 -434 -86 -26 -131 -26 -220 0 -139 41 -226
111 -283 228 -26 52 -28 64 -28 186 0 120 2 134 26 185 34 70 87 131 162 187
l59 43 -621 0 -621 0 0 -1380 0 -1380 2815 0 2815 0 0 2810 0 2810 -1410 0
-1410 0 0 -577z m2790 -868 l0 -1415 -606 0 -606 0 58 -43 c78 -57 121 -108
155 -182 43 -93 55 -171 41 -258 -29 -171 -129 -281 -313 -343 -87 -30 -137
-30 -225 -3 -97 30 -140 54 -201 111 -99 94 -139 231 -109 374 22 110 64 189
133 255 32 30 69 62 83 71 24 16 -9 17 -572 17 l-598 1 0 618 0 617 -29 -50
c-43 -75 -148 -169 -218 -195 -123 -46 -306 -34 -409 26 -108 63 -173 160
-200 297 -15 74 -15 99 -6 169 35 250 213 389 479 376 76 -3 101 -9 154 -35
74 -37 141 -97 193 -174 l36 -54 0 618 0 617 1380 0 1380 0 0 -1415z m-4516
-1501 c-103 -108 -148 -249 -125 -400 16 -111 51 -182 125 -252 69 -67 110
-90 210 -121 114 -35 209 -25 335 37 144 70 230 190 253 350 21 151 -20 276
-128 387 l-52 55 554 0 554 0 0 -590 c0 -324 2 -590 5 -590 3 0 29 17 58 39
100 74 175 101 287 101 275 0 478 -235 432 -500 -39 -226 -229 -369 -476 -358
-102 4 -174 36 -251 109 l-55 52 0 -482 0 -481 -1390 0 -1390 0 0 1350 0 1350
554 0 554 0 -54 -56z"/>
<path d="M1360 966 c0 -2 8 -10 18 -17 15 -13 16 -12 3 4 -13 16 -21 21 -21
13z"/>
<path d="M1420 916 c0 -2 8 -10 18 -17 15 -13 16 -12 3 4 -13 16 -21 21 -21
13z"/>
<path d="M1480 866 c0 -2 8 -10 18 -17 15 -13 16 -12 3 4 -13 16 -21 21 -21
13z"/>
<path d="M1568 803 c6 -2 18 -2 25 0 6 3 1 5 -13 5 -14 0 -19 -2 -12 -5z"/>
<path d="M2463 803 c9 -2 25 -2 35 0 9 3 1 5 -18 5 -19 0 -27 -2 -17 -5z"/>
<path d="M1633 793 c9 -2 23 -2 30 0 6 3 -1 5 -18 5 -16 0 -22 -2 -12 -5z"/>
<path d="M2543 793 c9 -2 25 -2 35 0 9 3 1 5 -18 5 -19 0 -27 -2 -17 -5z"/>
<path d="M1698 783 c6 -2 18 -2 25 0 6 3 1 5 -13 5 -14 0 -19 -2 -12 -5z"/>
<path d="M2683 783 c32 -2 81 -2 110 0 29 2 3 3 -58 3 -60 0 -84 -1 -52 -3z"/>
</g>
</svg>
