<svg xmlns="http://www.w3.org/2000/svg" width="978.74" height="589.9" viewBox="0 0 978.74 589.9"><g transform="translate(-131.26 667.9)"><path d="M450.5-658.9c-22.5,4.9-43.4,9.3-46.4,10l-5.4,1.1,4.4,2.8c6.5,4.1,13.5,11.8,15.9,17.5a58.582,58.582,0,0,1,3.2,12.7c2,13.8-2.5,25.4-13.7,35.6-9.9,9.1-20.4,12.4-33.1,10.4-15.4-2.4-25.5-9.7-31.5-22.4-2.9-6.3-3.4-8.6-3.7-16.8-.5-10.9,1.3-17.5,6.7-25.4,1.8-2.5,2.6-4.4,1.9-4.1-2.3.8-56.9,12.5-58.4,12.5-.8,0-1.4-.9-1.4-2,0-3.1-3.6-4.4-8.1-3.1-3.8,1.2-5.4,3.5-4.3,6.4.4,1.1-.1,1.8-1.8,2.2-1.2.2-6.3,1.3-11.1,2.4-4.9,1.1-9.1,2.2-9.4,2.5-.5.5,11,56.1,35.2,169.6,5.2,23.9,9.2,43.6,9.1,43.8-.5.4-20.3-13.7-33.6-24.1l-13.5-10.5-.1-24.3c-.1-16.9-.6-26.7-1.7-31.9l-1.4-7.5,4.8-6.1c5.4-6.8,15.9-23.1,15.9-24.7,0-.6-2.4,2.9-5.4,7.6-5.9,9.3-14.4,20.7-15.6,20.7-.4,0-1-1.4-1.4-3a66.777,66.777,0,0,0-3.1-9.5l-2.6-6.4,5.5-6.5c6.2-7.3,9.8-13.8,13.2-24,3.6-10.5,2.8-10.4-1.1.2a116.574,116.574,0,0,1-5.8,13.5c-3.1,5.1-11.7,15.2-12.8,15.1-.5-.1-1.6-.2-2.4-.3-1.2-.1-1.5-1.5-1.5-6.2,0-4.8.5-6.7,2.4-9.2,5.3-6.9,5.9-22,1.6-36.1-1.9-6-2-7.4-1-11.3,3.9-13.7-14.1-26.5-40.3-28.9-13.2-1.2-24.5,2.5-32.8,10.6-7.8,7.5-8.7,14.9-3.9,30.6,4.5,14.6,5.6,22,4.3,29.2-.6,3.2-4.8,15.2-9.2,26.5-12.7,32.3-15.9,46.3-13.2,56.5,2.8,10,15.9,19.1,32.1,22.2,3,.6,6.5,1.3,7.8,1.6a5.58,5.58,0,0,1,3.4,3.2,37.3,37.3,0,0,0,3.1,5.4l1.8,2.8-5.1,8.2c-6,9.9-10.5,21.2-11.9,29.9-1.5,9.6-2.9,33.9-3.3,56.4l-.3,20,7.2,1.4c4.8,1,7.4,2,7.7,3,.3.9,1.9,9.8,3.5,19.8,6.2,37.3,7.4,60.8,3.5,68.5a139.1,139.1,0,0,1-7.9,11.8c-16.3,22-29.7,51.6-38.5,85.3-1.9,7.1-2.9,9.2-4.9,10.5-3.7,2.2-9.1,7.3-10.3,9.7-.6,1.1-.7,1.7-.3,1.3s6,3.7,12.6,9.1l11.8,9.8,10.7,1.7c6,.9,11.3,2.1,12,2.7,1.7,1.4,2.2-.1,1.3-3.7a6.46,6.46,0,0,0-4-4.5c-2.9-1.2-3.3-1.1-5,1-1.1,1.3-1.9,1.9-1.9,1.3a4.535,4.535,0,0,1,1.6-2.3c1.4-1.1,1-1.6-2.8-3.5-3.6-1.8-5.1-3.6-8.8-10.3-3.3-6-5-8.1-6.5-8.1-3.1,0-6.5-2.8-6.5-5.3,0-3.1,6-24,10.8-37.2,8.2-23.1,16-38,29.6-56.8,10.3-14.4,11.1-17.3,10.3-35.7-.7-13.8-2.5-27.9-6.4-50.3-1.4-8.1-2.3-15-2.1-15.3.3-.2,5.2.2,10.9,1s13.9,1.7,18.2,2.1l7.7.7v3.6c0,9.9-2.2,43.1-3.5,53.7-4.6,36.5-7.1,42.5-32.6,78.6-7.6,10.8-16.6,24.3-20,30C162.3-129,155-113.6,155.1-111c0,.8.6-.1,1.3-2,4.8-12.9,15-30.1,33.3-56.1,19.8-28.3,23.8-35.3,27.2-48.1,4.3-15.7,7.6-42.8,8.7-71.6.7-17,.7-17.2,3-17.2,2,0,2.5,1,4.8,10.7,8.2,34.4,11.1,58.8,9.5,79.8-1.7,23.7-.8,53,2.7,86.5,3,28.5,2.9,27.4.3,31.1-1.7,2.4-2.4,5.1-2.7,9.4-.4,6-.4,6,2.4,6.2,1.6.1,13.4.5,26.2.9,15.7.5,23.2,1.1,23.2,1.8,0,.6.5.3,1.1-.7,1.7-2.9.1-5.6-3.9-6.6-8.7-2.2-11-2.2-12.2-.4-1,1.6-1,1.5-.5-.5.7-2.5-1.2-3.1-3.4-1-1,1.1-1.1,1-.6-.2.4-1.1-1.3-3-5.5-6-3.3-2.5-6.9-5.2-8-6-1.9-1.5-1.9-1.8,0-27,7.3-96.6,8.4-142.1,4.4-180.6l-.6-6.1L269-316l3.2-1.3-.7-6.1c-3.7-35.4-11.4-70.4-19.5-88.3-1.7-3.6-2.9-6.8-2.7-6.9.2-.2,10.2,5.2,22.3,12,20.2,11.4,31.4,19.2,31.4,22,0,1.7,8.8,5.4,11.5,4.8,1.4-.2,2.5-.8,2.5-1.3s.8-.5,1.7-.2c1.2.5,1.5.2,1-1-.5-1.3-.1-1.7,1.4-1.7s1.9-.5,1.5-1.5c-.3-.8-.3-1.5,0-1.5.4,0,30.2-6.3,66.3-14s85.5-18.2,109.9-23.3c24.3-5.2,44.5-9.7,44.9-10,.3-.4-3.3-19-8.1-41.4-4.7-22.5-8.6-41.1-8.6-41.5s2,.6,4.4,2.2a32.61,32.61,0,0,0,20.1,6.2c14.8.2,30.2-8.9,36.8-21.8a41.356,41.356,0,0,0,2.7-9.8c4.2-26.4-17.6-48.8-43.7-44.7-9.1,1.4-16.5,5.4-24,13-3.4,3.6-6.4,6.3-6.6,6-.2-.2-5-22.2-10.6-48.9s-10.5-49.5-10.8-50.8a2.524,2.524,0,0,0-2.2-2.1C492.2-667.8,473.1-663.8,450.5-658.9ZM286.2-628.2c-.7.2-.9,1.6-.7,3.5l.5,3.2-1.5-3-1.6-3,.4,4.5.5,4.5-1.9-4-1.8-4-.2,3.5-.1,3.5-1.4-3.3c-1.7-4-.7-5.9,3.4-6.4C284.8-629.6,288.1-628.9,286.2-628.2ZM213-612.8c17.5,5.4,27.3,14.3,25.3,23-1.1,4.9-1.2,5-4.7,1.4-3.8-4.1-9.1-6.6-13.8-6.6-4.6,0-5.3.8-5.5,6.2-.3,5.7-3.1,13.2-7.2,19.7-2.7,4.1-3.8,4.9-7.1,5.5-3.9.6-6,2.7-6,6.1,0,2.1,4.8,6.5,7.2,6.5,3.1,0,3.1,2.4,0,12.2-1.7,5.1-3.5,11.2-4.1,13.5-1,3.6-1.6,4.3-3.7,4.3-3.6,0-9.9,3.5-12.2,6.7-3,4.5-4.2,11.3-4.2,25.1,0,15.6,3.3,35.3,7.8,47.1.4,1.2-.3,1.3-4.4.8-13.7-1.6-28.9-9.7-33.4-17.7-2.1-3.9-2.5-5.7-2.4-13,.1-10.8,2.3-18.5,12.5-44.8,12.5-32,12.9-35,7.5-53.9-6.1-21.2-6-25.2.6-32.8C175.3-614.9,194.1-618.6,213-612.8Zm11.5,19.9c4.8,1.4,13,9.1,10.3,9.7-1,.2-1.8.8-1.8,1.3,0,.6.8.8,1.9.4,2.3-.7,3.8,2.3,1.6,3.1-2.2.9-1.8,2.7.5,2.1,2.8-.7,4.3,5.2,4.4,17.8.1,11.6-1.8,17-6.9,19.4-5.7,2.7-18.4-1.5-26.8-8.9-2.5-2.2-5.2-4-6-4-2,0-6.7-3.9-6.7-5.6,0-2.6,3.8-5.5,6.5-4.8,2.1.5,2.9-.1,6.1-5.2,4.5-7,8.3-17.5,8.4-22.7C216-594.5,217.3-594.9,224.5-592.9Zm-7.3,52.3,6.3,3.3.7,6.5c.3,3.6,1.3,7.6,2.2,8.9,2.6,4,6.6,15.8,6.6,19.4,0,4.6-3.5,5.6-9.4,2.7-4.7-2.2-17.2-12-22.5-17.6l-3.5-3.6,3.2-11c1.8-6,3.7-12.2,4.2-13.6l1.1-2.7,2.4,2.3A46.508,46.508,0,0,0,217.2-540.6Zm17.6,9.1-.3,6-3.8.6c-4.1.7-4,.8-5.2-8.1l-.5-4.5h10.1ZM199-510c2,1.4,6.2,8.5,13.5,22.9,17.1,33.6,17.9,34.6,52.8,61.4,30.5,23.5,36,26.6,50,28.4l6.2.8-5.4.5c-3,.3-5.6,1-5.8,1.7-.3.7,2.1,2.9,5.1,4.9,6.7,4.4,7.4,5.5,1.3,1.9a29.593,29.593,0,0,0-5-2.5c-1.7,0-.4,1.7,2.8,3.9,2,1.3,3.3,2.6,3.1,2.9-.3.2-1.8-.5-3.4-1.7-4.1-2.9-5-2.6-2.1.5,2.3,2.5,2.3,2.6.2,1.5-3-1.5-3.8-1.4-2.3.4,2.9,3.5-.5,1-7.4-5.4a93.372,93.372,0,0,0-16.3-11.7c-34.4-18.7-55.2-32.3-66.8-44-21-20.9-35.4-43.4-36.3-56.5-.4-5.4-.2-6,2.6-8.9A9.945,9.945,0,0,1,199-510Zm66.3,202.2c.3,2.9,1.1,15.3,1.8,27.4,1.4,24.3.7,47.7-3.1,107.4-3.7,58.3-4.9,71.4-6.7,72.8-1.7,1.2-4.9.8-6.7-.9-1.4-1.3-5.3-40.6-6.7-67.1-1-18.6-1-27.8-.1-43,1.7-27.3-.5-47.7-8.8-82.3-1.5-6.6-2.7-12.1-2.6-12.2s4.2-.8,9.1-1.7a98.019,98.019,0,0,0,14.5-3.4C264.5-313.8,264.7-313.8,265.3-307.8Zm-99,219.3c-.3.9-.8,1.4-1,1.1-.3-.3-.2-.9.2-1.5C166.4-90.5,167-90.2,166.3-88.5Z"/><path d="M221.4-580c-2.6,1-5.4,4.8-5.3,7,0,1.3.1,1.3.6,0,1-2.6,4.6-6,6.4-6a3.172,3.172,0,0,0,2.4-1C226.2-581.2,224.3-581.2,221.4-580Z"/><path d="M224.1-574.1c-.9.6-1,1.1-.2,1.5a2.028,2.028,0,0,0,3.1-1.5C227-575.2,225.9-575.2,224.1-574.1Z"/><path d="M231.7-572.3c-1.8,1.8.6,9.3,3,9.3,2.3,0,2.7-3,1-6.6C234.1-572.9,233-573.7,231.7-572.3Zm4.3,6.4c0,1-.5,1.9-1,1.9-1.2,0-3-4.3-3-6.8C232.1-573.3,236-568.4,236-565.9Z"/><path d="M237.1-557.3c-.7,1.4-1.2,1.5-2.5.4-1.5-1.3-5.6-.7-5.6.8,0,2.3,4.4,6.1,7,6.1,2.4,0,3-.6,4-3.5C241.6-558.3,239.4-561.3,237.1-557.3Z"/><path d="M828-582.3v57.6l-5.8-5.5c-11.8-11.3-26-15.5-42.2-12.4-20,3.8-33.4,15.8-37.4,33.6-5.7,24.8,4,47.7,24.1,57.7,7,3.4,8.2,3.7,18.7,4.1,17,.7,26.3-2.5,36.8-12.6l5.8-5.5V-354H706.7l6.4,4.7c13.2,10,19.3,20.9,19.2,34.8-.1,21.9-11.4,36.9-32.7,43.4-8.6,2.6-13.1,2.6-22,0-13.9-4.1-22.6-11.1-28.3-22.8-2.6-5.2-2.8-6.4-2.8-18.6,0-12,.2-13.4,2.6-18.5,3.4-7,8.7-13.1,16.2-18.7l5.9-4.3H547V-78h563V-640H828Zm279,86.8V-354H985.8l5.8,4.3c7.8,5.7,12.1,10.8,15.5,18.2,4.3,9.3,5.5,17.1,4.1,25.8-2.9,17.1-12.9,28.1-31.3,34.3-8.7,3-13.7,3-22.5.3-9.7-3-14-5.4-20.1-11.1-9.9-9.4-13.9-23.1-10.9-37.4,2.2-11,6.4-18.9,13.3-25.5a90.211,90.211,0,0,1,8.3-7.1c2.4-1.6-.9-1.7-57.2-1.7L831-354V-477.5l-2.9,5c-4.3,7.5-14.8,16.9-21.8,19.5-12.3,4.6-30.6,3.4-40.9-2.6-10.8-6.3-17.3-16-20-29.7-1.5-7.4-1.5-9.9-.6-16.9,3.5-25,21.3-38.9,47.9-37.6,7.6.3,10.1.9,15.4,3.5a51.437,51.437,0,0,1,19.3,17.4l3.6,5.4V-637h276ZM655.4-345.4a46.48,46.48,0,0,0-12.5,40c1.6,11.1,5.1,18.2,12.5,25.2,6.9,6.7,11,9,21,12.1,11.4,3.5,20.9,2.5,33.5-3.7,14.4-7,23-19,25.3-35,2.1-15.1-2-27.6-12.8-38.7l-5.2-5.5H828v59c0,32.4.2,59,.5,59a37.8,37.8,0,0,0,5.8-3.9c10-7.4,17.5-10.1,28.7-10.1,27.5,0,47.8,23.5,43.2,50-3.9,22.6-22.9,36.9-47.6,35.8-10.2-.4-17.4-3.6-25.1-10.9l-5.5-5.2V-81H550V-351H660.8Z"/><path d="M136-96.6a5.734,5.734,0,0,0,1.8,1.7c1.5,1.3,1.6,1.2.3-.4S136-97.4,136-96.6Z"/><path d="M142-91.6a5.734,5.734,0,0,0,1.8,1.7c1.5,1.3,1.6,1.2.3-.4S142-92.4,142-91.6Z"/><path d="M148-86.6a5.734,5.734,0,0,0,1.8,1.7c1.5,1.3,1.6,1.2.3-.4S148-87.4,148-86.6Z"/><path d="M156.8-80.3a5.279,5.279,0,0,0,2.5,0c.6-.3.1-.5-1.3-.5S156.1-80.6,156.8-80.3Z"/><path d="M246.3-80.3a10.278,10.278,0,0,0,3.5,0c.9-.3.1-.5-1.8-.5S245.3-80.6,246.3-80.3Z"/><path d="M163.3-79.3a7.556,7.556,0,0,0,3,0c.6-.3-.1-.5-1.8-.5C162.9-79.8,162.3-79.6,163.3-79.3Z"/><path d="M254.3-79.3a10.279,10.279,0,0,0,3.5,0c.9-.3.1-.5-1.8-.5S253.3-79.6,254.3-79.3Z"/><path d="M169.8-78.3a5.279,5.279,0,0,0,2.5,0c.6-.3.1-.5-1.3-.5S169.1-78.6,169.8-78.3Z"/><path d="M268.3-78.3a100.864,100.864,0,0,0,11,0c2.9-.2.3-.3-5.8-.3C267.5-78.6,265.1-78.5,268.3-78.3Z"/></g></svg>