<?xml version="1.0" standalone="no"?>
<!DOCTYPE svg PUBLIC "-//W3C//DTD SVG 20010904//EN"
 "http://www.w3.org/TR/2001/REC-SVG-20010904/DTD/svg10.dtd">
<svg version="1.0" xmlns="http://www.w3.org/2000/svg"
 width="988.000000pt" height="1254.000000pt" viewBox="0 0 988.000000 1254.000000"
 preserveAspectRatio="xMidYMid meet">

<g transform="translate(0.000000,1254.000000) scale(0.100000,-0.100000)"
fill="#000000" stroke="none">
<path d="M6047 12059 c-217 -32 -363 -109 -466 -246 -159 -213 -217 -507 -156
-791 32 -144 50 -369 40 -497 -7 -91 -8 -96 -35 -110 -15 -8 -44 -33 -63 -56
-65 -75 -108 -226 -182 -639 -57 -315 -90 -466 -122 -550 -25 -69 -66 -120
-94 -120 -34 0 -140 84 -250 198 -128 133 -297 344 -476 594 l-120 168 -7 70
c-3 39 -15 94 -26 123 -16 42 -20 76 -20 178 0 100 -3 129 -15 139 -36 29 -75
-46 -84 -162 l-6 -77 -100 91 c-55 50 -120 103 -144 119 -51 33 -108 39 -118
12 -6 -16 12 -36 67 -75 14 -10 -5 -4 -42 13 -76 35 -133 37 -133 5 0 -13 27
-34 93 -71 91 -51 141 -87 97 -70 -79 30 -153 55 -166 55 -9 0 -22 -6 -28 -13
-19 -23 8 -42 119 -83 l105 -39 -83 -3 c-63 -2 -84 -6 -89 -18 -10 -26 18 -42
97 -59 92 -19 130 -42 245 -143 87 -76 93 -84 169 -228 345 -648 647 -1043
864 -1127 168 -66 325 49 520 379 l23 39 -5 -149 c-7 -179 -36 -420 -79 -652
l-32 -169 -132 -71 c-294 -159 -489 -299 -668 -478 -70 -71 -147 -160 -183
-214 -140 -205 -356 -705 -552 -1280 -44 -126 -66 -179 -74 -173 -6 5 -51 41
-101 80 -118 94 -249 161 -317 161 -27 0 -62 -7 -79 -15 -16 -9 -35 -13 -42
-9 -33 20 -914 588 -925 597 -11 9 -10 12 7 19 27 10 28 49 1 128 -37 111
-152 280 -189 280 -15 0 -343 -207 -625 -395 l-60 -40 -138 -284 c-131 -267
-150 -321 -117 -321 5 0 19 -10 31 -22 19 -19 34 -23 80 -23 70 0 89 16 159
131 59 99 63 135 19 184 -16 18 -28 35 -26 38 9 8 28 -11 55 -53 l27 -43 33
40 c38 45 37 68 -4 112 -14 16 -23 31 -20 35 9 8 65 -59 65 -79 0 -12 14 -15
68 -16 37 0 122 -13 188 -28 67 -15 135 -26 150 -24 26 3 30 8 34 45 l5 43
528 -451 528 -451 -42 -45 c-22 -24 -55 -74 -72 -111 -27 -58 -31 -78 -31
-147 0 -184 114 -347 395 -566 138 -107 193 -165 239 -250 64 -121 75 -256 40
-504 -11 -77 -20 -174 -20 -217 0 -267 200 -379 765 -428 239 -21 416 -6 715
60 190 42 264 39 380 -16 78 -36 80 -38 80 -73 0 -20 14 -430 30 -911 36
-1061 35 -993 11 -985 -15 4 -23 -4 -40 -45 -32 -74 -44 -152 -39 -264 3 -76
7 -101 20 -110 9 -6 105 -23 215 -36 183 -23 228 -25 593 -23 391 1 395 2 412
23 26 32 34 89 17 119 -22 39 -71 58 -217 82 l-133 22 -20 -20 c-11 -11 -23
-39 -26 -62 -3 -22 -10 -41 -15 -41 -14 0 -1 69 18 98 18 27 13 38 -23 45 -36
7 -83 -39 -83 -82 0 -16 -4 -33 -10 -36 -15 -9 -12 40 4 79 8 19 22 39 33 45
10 6 12 11 6 11 -21 0 -92 70 -173 170 -43 52 -89 105 -103 118 l-25 23 -31
-38 c-20 -25 -31 -32 -31 -21 0 9 25 370 55 802 30 431 55 787 55 789 0 3 19
8 43 11 60 9 102 38 138 93 40 65 62 139 94 328 25 151 62 305 219 915 170
661 210 1024 188 1669 -17 485 -44 815 -108 1321 -19 151 -38 298 -43 327 -7
47 -4 62 26 140 170 444 284 775 374 1083 l54 185 2 -110 c4 -173 23 -503 34
-584 6 -41 22 -106 36 -145 64 -177 334 -789 458 -1036 77 -153 125 -208 208
-236 62 -22 164 -24 229 -5 56 16 115 62 103 80 -8 13 -20 13 -157 -5 -62 -9
-98 1 -98 26 0 41 30 44 250 20 114 -13 215 -20 225 -16 11 4 15 13 12 25 -3
12 1 22 9 25 23 9 16 33 -18 60 -18 14 -27 26 -20 26 28 0 9 29 -30 46 -38 17
-71 19 -258 19 -235 0 -241 1 -285 59 -75 99 -218 512 -275 796 -52 258 -70
521 -90 1299 -16 592 -27 674 -111 800 -70 104 -149 151 -283 166 l-58 7 6 46
c29 203 38 291 45 454 16 318 -12 575 -84 776 -63 174 -151 274 -258 292 -37
6 -77 24 -132 59 -46 28 -106 57 -140 66 -63 16 -183 18 -278 4z m324 -46 c24
-11 72 -38 107 -61 35 -22 76 -43 92 -46 17 -3 44 -9 61 -12 109 -21 228 -269
271 -561 16 -110 16 -495 -1 -653 -16 -150 -41 -313 -50 -322 -11 -12 -163
-38 -224 -38 -53 0 -58 2 -67 26 -6 14 -13 56 -16 94 -7 68 -6 70 26 107 69
78 120 239 120 376 l0 64 58 45 c92 72 115 149 70 238 -26 51 -69 72 -123 60
-31 -7 -33 -5 -82 69 -32 48 -55 96 -62 130 -37 174 -42 191 -61 191 -15 0
-19 -11 -25 -67 -10 -108 -12 -115 -38 -107 -84 25 -83 24 -109 136 -29 125
-48 139 -68 51 -28 -129 -38 -150 -69 -156 -16 -4 -69 -29 -117 -57 -58 -33
-100 -50 -122 -50 -31 0 -35 4 -55 50 -25 59 -39 66 -81 41 -77 -48 -98 -144
-66 -300 11 -57 22 -109 23 -114 1 -6 -9 -11 -23 -12 -14 -1 -35 -2 -47 -3
-35 -3 -92 -59 -99 -97 -17 -92 63 -175 184 -191 l52 -7 39 -72 c22 -40 65
-106 96 -146 50 -68 55 -78 54 -124 -1 -27 -4 -62 -8 -77 l-6 -26 -90 24
c-220 58 -244 60 -386 38 l-36 -6 -6 218 c-5 185 -10 238 -32 339 -99 458 99
902 445 998 169 47 377 51 471 10z m-72 -368 c7 -33 19 -69 26 -80 14 -23 132
-63 145 -49 5 5 12 41 17 79 l8 70 23 -104 c19 -88 29 -114 71 -176 27 -40 50
-78 52 -84 3 -8 15 -7 40 1 69 20 111 -8 129 -87 14 -60 -4 -98 -75 -160 l-63
-56 -7 -77 c-19 -240 -90 -378 -224 -441 -47 -22 -70 -26 -146 -26 -81 0 -95
3 -142 29 -95 52 -185 157 -268 312 l-38 71 -57 6 c-32 3 -74 13 -94 22 -40
19 -76 70 -76 108 0 67 46 107 125 107 41 0 45 2 45 24 0 14 -9 62 -20 108
-33 140 -24 222 32 277 18 17 35 31 38 31 3 0 12 -16 19 -35 6 -19 24 -44 39
-55 32 -26 75 -21 142 17 25 14 68 39 95 54 28 16 59 29 71 29 24 0 37 23 54
103 8 32 16 54 20 50 4 -4 12 -35 19 -68z m-155 -1191 c93 -49 217 -49 316 1
l49 25 7 -58 c4 -31 10 -67 15 -79 13 -34 -18 -110 -65 -158 -74 -77 -149 -81
-250 -13 -55 36 -176 172 -176 198 0 9 3 45 6 79 7 60 7 61 28 46 12 -8 43
-27 70 -41z m-2434 11 c19 -13 86 -69 148 -124 86 -76 117 -99 127 -91 7 6 14
46 17 103 3 58 11 104 21 122 16 29 16 26 16 -96 -1 -94 3 -133 14 -155 17
-33 37 -131 37 -182 0 -67 410 -610 625 -828 123 -125 214 -194 257 -194 29 0
84 57 107 109 36 85 67 218 126 543 65 354 101 509 141 597 29 65 87 126 129
137 58 15 138 -53 173 -148 74 -197 69 -432 -13 -674 -184 -544 -384 -864
-572 -920 -48 -14 -58 -14 -105 0 -221 64 -528 459 -893 1149 -63 120 -73 134
-154 204 -138 121 -176 142 -278 158 -24 4 -46 11 -49 17 -7 11 97 4 186 -12
25 -5 46 -7 48 -6 2 3 -42 35 -107 78 -36 25 -25 22 60 -12 l74 -30 -71 68
c-43 41 -103 84 -152 110 -90 48 -114 69 -54 48 60 -21 97 -42 211 -119 57
-38 102 -64 100 -58 -10 27 -79 102 -142 152 -38 30 -78 62 -90 72 l-22 18 25
-6 c14 -4 41 -17 60 -30z m-105 -161 c24 -11 25 -13 5 -8 -14 4 -38 13 -55 20
-24 11 -25 13 -5 8 14 -4 39 -13 55 -20z m3472 -11 c29 -13 69 -43 89 -66 52
-61 102 -165 114 -240 13 -84 27 -388 35 -752 14 -689 40 -976 116 -1280 65
-261 202 -623 261 -691 47 -54 101 -68 211 -58 106 10 261 9 281 -3 8 -4 -33
-8 -91 -8 -72 0 -108 -4 -110 -12 -3 -7 19 -13 64 -18 138 -12 254 -37 241
-50 -3 -3 -43 4 -89 15 -92 22 -214 27 -225 9 -10 -17 13 -27 91 -39 105 -16
177 -31 172 -37 -3 -2 -63 3 -134 11 -238 29 -313 20 -313 -40 0 -53 63 -73
166 -54 35 7 67 10 70 7 10 -10 -84 -40 -142 -44 -88 -8 -166 19 -221 73 -46
46 -93 134 -223 419 -245 535 -347 785 -365 895 -36 212 -47 784 -19 993 20
148 14 443 -11 582 -18 104 -57 257 -85 340 -11 32 -20 64 -20 72 0 19 72 7
137 -24z m-3407 -13 c8 -5 11 -10 5 -10 -5 0 -17 5 -25 10 -8 5 -10 10 -5 10
6 0 17 -5 25 -10z m1745 -2266 c75 -57 158 -104 259 -144 151 -60 499 -139
745 -171 51 -6 94 -17 97 -23 6 -19 63 -460 84 -656 54 -504 73 -839 74 -1290
1 -588 -37 -837 -249 -1645 -100 -382 -131 -516 -165 -712 -37 -219 -81 -318
-157 -350 -77 -32 -168 2 -403 151 -328 208 -390 223 -650 162 -232 -55 -283
-60 -520 -60 -181 0 -255 4 -377 22 -316 47 -449 107 -512 234 -27 54 -31 71
-31 147 0 48 9 149 20 226 54 383 -4 547 -264 742 -55 42 -151 126 -212 187
-95 95 -117 124 -155 200 -42 85 -44 94 -44 175 0 71 5 95 26 141 31 65 78
123 150 185 104 88 116 129 87 299 -32 194 -7 260 98 258 83 -2 192 -63 355
-199 58 -47 91 -69 94 -61 3 7 34 99 69 203 183 544 403 1058 540 1264 117
177 313 363 540 515 115 76 412 246 432 246 6 0 37 -21 69 -46z m-3299 -929
c2 -5 -144 -108 -325 -228 l-329 -219 -123 -264 c-67 -145 -129 -270 -138
-278 -18 -16 -51 -5 -51 18 0 7 60 136 134 287 l134 274 238 155 c131 85 277
181 324 212 80 54 129 69 136 43z m602 -713 c419 -270 473 -307 468 -326 -16
-56 -17 -109 -2 -194 29 -166 19 -216 -57 -282 l-37 -32 -30 23 c-17 13 -257
218 -534 454 -348 296 -505 436 -505 450 -1 24 49 113 75 137 41 35 128 87
138 81 6 -4 224 -144 484 -311z m3035 -3268 c65 -40 145 -82 177 -94 60 -22
60 -22 60 -64 0 -22 -25 -392 -55 -821 -52 -749 -55 -781 -76 -797 -37 -31
-97 -42 -172 -30 -38 6 -71 12 -73 15 -4 4 -64 1727 -64 1850 l0 67 43 -27
c23 -15 95 -59 160 -99z m-63 -2175 c52 -6 306 -13 563 -16 426 -5 468 -7 465
-22 -5 -23 -81 -28 -453 -30 -288 -1 -341 2 -530 25 -115 14 -216 30 -222 36
-26 21 -13 30 35 24 26 -4 90 -11 142 -17z"/>
<path d="M6321 11358 c-44 -23 -64 -48 -41 -48 7 0 27 9 44 19 62 38 141 35
189 -7 12 -11 21 -12 28 -5 7 7 1 18 -22 34 -50 35 -140 38 -198 7z"/>
<path d="M5995 11305 c-5 -2 -22 -6 -37 -9 -30 -7 -93 -57 -109 -88 -21 -39 4
-38 39 3 48 56 89 72 161 63 50 -5 54 -4 41 9 -15 14 -75 29 -95 22z"/>
<path d="M6408 11249 c-21 -12 -14 -35 13 -42 18 -5 49 15 49 33 0 8 -24 20
-38 20 -4 0 -15 -5 -24 -11z"/>
<path d="M6048 11193 c-22 -5 -23 -26 -4 -42 18 -15 56 2 56 23 0 11 -26 30
-33 25 -1 -1 -10 -3 -19 -6z"/>
<path d="M6200 11115 c-16 -19 -24 -93 -16 -139 12 -64 57 -85 96 -46 25 25
25 56 0 127 -25 72 -52 92 -80 58z m55 -65 c20 -61 17 -104 -9 -108 -27 -6
-36 15 -36 84 0 91 19 101 45 24z"/>
<path d="M6353 10847 c-18 -7 -42 -21 -53 -33 -19 -18 -26 -20 -60 -11 -51 14
-104 -1 -108 -30 -5 -32 57 -75 117 -81 39 -3 58 1 90 19 44 24 104 103 99
129 -4 19 -43 22 -85 7z"/>
<path d="M5501 7652 c-13 -25 5 -52 34 -52 15 0 26 7 30 20 13 41 -44 70 -64
32z"/>
<path d="M4662 7468 c-30 -30 3 -77 40 -57 22 12 24 55 2 63 -22 8 -28 8 -42
-6z"/>
<path d="M6281 7036 c-21 -25 -4 -58 27 -54 23 2 27 8 27 33 0 23 -5 31 -21
33 -11 2 -26 -4 -33 -12z"/>
<path d="M4951 6896 c-16 -19 2 -56 28 -56 28 0 47 28 34 48 -13 22 -47 27
-62 8z"/>
<path d="M4191 6481 c-13 -24 8 -55 34 -50 28 6 42 34 26 53 -18 22 -48 20
-60 -3z"/>
<path d="M5752 6398 c-30 -30 0 -78 37 -58 26 14 27 46 2 60 -24 13 -24 13
-39 -2z"/>
<path d="M4837 5973 c-14 -13 -7 -43 12 -53 25 -13 27 -13 45 6 12 12 13 20 6
35 -10 18 -50 26 -63 12z"/>
<path d="M6451 5871 c-13 -24 8 -55 34 -50 28 6 42 34 26 53 -18 22 -48 20
-60 -3z"/>
<path d="M3410 5845 c-20 -25 -8 -50 25 -50 24 0 31 5 33 24 6 37 -34 55 -58
26z"/>
<path d="M4163 5413 c-19 -7 -16 -51 4 -62 37 -20 71 27 41 57 -13 13 -24 14
-45 5z"/>
<path d="M5737 5334 c-25 -25 8 -70 43 -59 32 10 24 59 -10 63 -14 2 -29 0
-33 -4z"/>
<path d="M3412 5038 c-30 -30 3 -77 40 -57 30 16 16 69 -17 69 -6 0 -16 -5
-23 -12z"/>
<path d="M4922 4868 c-30 -30 0 -78 37 -58 26 14 27 46 2 60 -24 13 -24 13
-39 -2z"/>
<path d="M6373 4834 c-9 -24 10 -49 38 -49 20 0 24 5 24 30 0 25 -4 30 -28 33
-18 2 -29 -2 -34 -14z"/>
<path d="M4122 4528 c-30 -30 3 -77 40 -57 22 12 24 55 2 63 -22 8 -28 8 -42
-6z"/>
<path d="M5707 4334 c-25 -25 8 -70 43 -59 32 10 24 59 -10 63 -14 2 -29 0
-33 -4z"/>
<path d="M4923 3763 c-19 -7 -16 -51 4 -62 37 -20 71 27 41 57 -13 13 -24 14
-45 5z"/>
<path d="M3877 3579 c-23 -13 -22 -46 2 -59 27 -14 51 -2 51 26 0 29 -28 46
-53 33z"/>
<path d="M5914 3496 c-3 -8 -4 -23 -2 -33 5 -25 61 -25 66 0 7 37 -51 67 -64
33z"/>
</g>
</svg>
