<?xml version="1.0" standalone="no"?>
<!DOCTYPE svg PUBLIC "-//W3C//DTD SVG 20010904//EN"
 "http://www.w3.org/TR/2001/REC-SVG-20010904/DTD/svg10.dtd">
<svg version="1.0" xmlns="http://www.w3.org/2000/svg"
 width="905.000000pt" height="853.000000pt" viewBox="0 0 905.000000 853.000000"
 preserveAspectRatio="xMidYMid meet">

<g transform="translate(0.000000,853.000000) scale(0.100000,-0.100000)"
fill="#000000" stroke="none">
<path d="M5860 7593 l0 -507 -47 46 c-93 92 -269 143 -410 120 -184 -31 -308
-157 -335 -343 -26 -173 49 -341 186 -418 93 -52 147 -64 265 -59 137 7 201
30 281 105 l60 55 0 -476 0 -476 -552 -2 -552 -3 62 -38 c108 -67 159 -154
169 -290 9 -136 -28 -248 -108 -328 -127 -127 -385 -139 -549 -28 -96 65 -135
158 -135 319 0 92 3 112 26 160 33 70 98 136 174 177 l60 32 -572 1 -573 0 0
-510 0 -510 -38 38 c-171 171 -497 174 -651 6 -141 -154 -144 -420 -5 -574
123 -136 375 -171 558 -78 21 11 61 40 87 65 l49 46 0 -471 c0 -419 -2 -471
-16 -476 -9 -3 -255 -6 -547 -6 l-532 -1 30 -22 c156 -114 218 -254 185 -419
-25 -128 -98 -222 -216 -278 -131 -63 -217 -63 -348 -2 -146 69 -218 185 -217
352 0 146 59 257 176 336 l50 34 -563 0 -562 0 0 -1245 0 -1245 1280 0 c704 0
1858 0 2565 0 707 0 1862 0 2566 0 l1281 0 -6 2478 c-4 1362 -7 3032 -7 3710
l1 1232 -557 0 -558 0 55 -36 c101 -65 154 -150 166 -265 7 -76 -9 -191 -37
-254 -24 -53 -93 -127 -146 -153 -97 -50 -211 -63 -321 -37 -185 44 -280 156
-290 340 -10 188 41 286 198 378 l45 27 -562 0 -563 0 0 -507z m965 433 c-76
-75 -106 -143 -112 -255 -9 -160 23 -255 116 -345 92 -87 229 -127 376 -108
202 26 325 145 356 344 23 149 -14 277 -106 372 l-44 46 499 0 500 0 0 -1220
0 -1220 -552 0 -551 0 45 -30 c58 -39 130 -116 157 -168 35 -69 44 -133 32
-225 -21 -154 -88 -253 -210 -310 -56 -27 -81 -32 -161 -35 -142 -6 -250 33
-332 121 -101 109 -125 299 -55 450 32 70 66 108 139 156 l60 41 -551 0 -551
0 0 495 c0 326 -3 495 -10 495 -6 0 -38 -25 -71 -56 -34 -31 -86 -68 -118 -82
-51 -25 -67 -27 -181 -27 -122 0 -127 1 -198 34 -53 25 -86 49 -118 85 -120
137 -122 360 -7 514 56 75 193 132 315 132 55 0 166 -29 221 -57 39 -19 104
-80 139 -127 l28 -39 0 536 0 537 500 0 501 0 -56 -54z m-2543 -2463 c-33 -31
-62 -72 -84 -118 -32 -67 -33 -75 -33 -185 1 -140 23 -208 93 -282 84 -89 188
-131 332 -131 200 -1 340 91 401 263 20 53 24 84 23 170 -1 137 -24 202 -100
277 l-53 53 500 0 499 0 0 -496 0 -497 -55 52 c-119 113 -280 145 -465 95
-191 -53 -303 -246 -270 -462 29 -186 147 -300 351 -338 149 -28 280 8 384
107 l55 52 -2 -474 -3 -474 -549 -3 -549 -2 64 -48 c127 -95 183 -224 160
-370 -6 -43 -22 -100 -36 -128 -71 -146 -263 -245 -416 -215 -211 42 -330 181
-331 383 0 151 59 262 179 340 l66 43 -199 3 c-109 1 -358 1 -552 0 l-352 -3
0 498 c0 323 -3 497 -10 497 -5 0 -41 -29 -80 -64 -100 -92 -151 -110 -305
-111 -114 0 -123 2 -185 31 -86 41 -130 80 -168 151 -79 148 -60 348 43 462
117 130 344 158 524 66 44 -22 113 -87 159 -149 l22 -29 0 542 0 541 496 0
496 0 -50 -47z m2539 -8 c-29 -30 -64 -81 -79 -112 -25 -53 -27 -68 -27 -183
0 -120 1 -128 32 -190 52 -107 122 -167 248 -210 70 -24 216 -27 286 -6 163
50 267 175 288 347 19 144 -17 265 -105 359 l-47 50 497 0 496 0 -2 -1217 -3
-1218 -549 -3 -549 -2 62 -43 c117 -82 173 -187 173 -321 -1 -131 -30 -203
-116 -284 -65 -62 -140 -99 -229 -114 -164 -27 -359 85 -417 240 -28 74 -31
204 -7 278 34 99 66 138 199 236 22 16 -6 17 -529 18 l-553 0 -2 515 -3 514
-47 -59 c-88 -110 -194 -160 -338 -160 -221 0 -375 125 -398 322 -16 138 19
257 98 336 113 111 320 140 484 68 53 -24 136 -97 183 -161 l22 -30 0 543 1
542 491 0 492 0 -52 -55z m-3447 -3441 c100 69 164 88 271 84 76 -2 100 -8
155 -34 76 -36 151 -106 185 -175 81 -159 41 -366 -90 -474 -166 -136 -414
-131 -545 12 l-40 43 0 -440 0 -440 -1265 0 -1265 0 0 1225 0 1225 501 0 502
0 -26 -20 c-43 -34 -94 -112 -117 -180 -31 -90 -25 -238 12 -321 81 -179 310
-283 498 -226 87 26 178 85 227 147 66 83 86 145 87 265 1 93 -1 105 -32 171
-20 42 -52 90 -78 115 l-45 44 498 5 498 5 3 -537 2 -538 64 44z m3468 981
c-28 -30 -63 -81 -79 -113 -26 -53 -28 -65 -28 -182 0 -114 2 -130 26 -181 89
-188 315 -286 512 -220 170 57 272 174 298 342 20 131 -19 256 -112 354 l-52
55 502 0 501 0 0 -1230 0 -1230 -1260 0 -1260 0 0 401 0 400 33 -24 c70 -53
118 -70 209 -75 299 -15 510 201 468 478 -33 211 -208 360 -425 360 -87 0
-152 -18 -227 -64 l-58 -35 0 510 0 509 501 0 501 0 -50 -55z"/>
</g>
</svg>
