<svg xmlns="http://www.w3.org/2000/svg" width="1029.637" height="791.877" viewBox="0 0 1029.637 791.877"><g transform="translate(431 770.726)"><path d="M439.5-769.5c-19,3.9-32.9,15.2-46.3,37.5-10.9,18.3-18.7,28.5-31.2,41.1-21.9,22-43.5,34.9-99.6,59.8-13.8,6.1-27.3,12.3-30,13.8-7,3.8-22,19.3-29.1,29.9-15.9,24-28.4,58.2-32.8,89.7-2,14.1-2,41.3,0,53.7a148.358,148.358,0,0,0,21.7,57c6.3,9.7,23.7,26.6,34.8,34,17.9,11.8,42.1,21.7,62.8,25.7l9.3,1.8L307-316c4.3,5.2,11.7,13.3,16.4,18l8.6,8.5v7.1c0,12.1-2.1,33.5-4,42.1-2.6,10.9-5.4,16.6-10.4,21-6.1,5.3-25.8,14.5-44.5,20.7-15.4,5.1-49.7,14.6-58.3,16.1-2.1.4-3.8,1-3.8,1.4,0,.7,13.7,13.4,23.4,21.4,36,30.2,73.3,50.3,113.3,61.2,42,11.4,86,12.3,125.9,2.6,38.3-9.4,70.1-27.3,98.8-55.5,11.2-11.1,27.1-29.4,26.2-30.3-.2-.2-10.7-2.2-23.3-4.3-30-5.1-40.1-7.3-55.9-12.6-15.6-5.1-23.2-8.6-31.7-14.7-7-5-11.4-10.7-12.8-16.4-.5-2.1-.6-9.1-.3-15.5.6-10.4.9-11.8,2.6-12.4,4.2-1.3,19.6-12.5,24.9-18,18.1-19.1,29.3-47.2,35.2-88.4,2.1-14.7,2.2-18.3,2-72.5-.3-55.4-.7-65.4-3.9-87.4l-1.5-10.3,8-15.8c11.9-23.2,17.4-38.5,21.8-60.5,2.7-13.7,2.4-44.4-.5-58.2-5.9-27.2-16.7-47-36.6-66.8C500.3-761.7,466.2-775,439.5-769.5Zm35.5,10c17.5,5.6,33.8,16.3,49.1,32.2,25.3,26.2,36.5,58.4,33.9,97.3-1,16.4-3.7,29.4-9.3,46-4.1,12.4-17.3,40.2-19.1,40.4-.6.1-2-5.5-3.1-12.4-5.2-29.5-20.5-62-31.9-67.4a17.742,17.742,0,0,0-13-.6c-6.9,2.6-16.9,15.5-23.7,30.5-9.2,20.3-22.6,33.9-43.8,44.4-21.4,10.6-39.8,15.3-77.3,19.6-59.2,6.8-61.9,7.4-70,15.8-7.8,8.1-9.3,13.2-9.3,31.7,0,14.9.9,20.8,5.1,36.1.4,1.4-.2,1.5-4.3.8-7.2-1.2-22.5-1.1-28.5.2-11.3,2.4-20.5,9.6-23.5,18.3-3.6,10.4-1.7,26.8,4.7,40.1,9.5,19.9,31.3,32,63,35l6.6.6,5.7,8.1,5.8,8.1-4.2-.7c-14.1-2.2-42-14-57.3-24.1-51.3-33.7-67.8-101.9-43-177.5,7.6-23.1,20.6-46.9,33.4-61.2,7.6-8.5,15.8-13.3,45-26.2,78.2-34.7,103.6-54.3,132.6-102.1,12-19.7,21.3-28.6,34.9-33.3,8.3-2.9,9.5-3.1,22-2.8C464.2-762.3,468.3-761.7,475-759.5Zm20.8,146.8c8.6,8.4,20.4,38.6,24.2,62.1,1.1,7.1,1.9,13,1.8,13.2a31.094,31.094,0,0,1-5.3-.7c-10.5-2.1-24.3,1-30,6.7-6,6-7.2,20.6-1.9,24.1,1.9,1.2,3.8,1.4,8.2.9,16.1-1.9,17.7-1.9,25.8.4,4.3,1.3,8,2.4,8.1,2.5.6.3,4.3,41.9,5.3,58.4,3.9,69.4-5.2,122.4-26.1,152.6-6.2,9.1-17.3,19.8-25.5,24.6-18.2,10.8-48.1,15.9-70.4,12-31.6-5.6-64.8-26.8-92.4-59.1a405.836,405.836,0,0,1-25.5-32.5c-3.5-5-6.6-9.3-7-9.8-.4-.4-5.4-1.2-11.2-1.7-12.9-1.2-27.2-5-35.3-9.3-7.8-4.1-17.4-13.7-20.8-20.7-5.4-10.8-7.4-25.9-4.7-34.1,5.2-15.4,23.1-19.2,57.9-12.2l2.7.5-3.3-11.5c-12.2-42.5-6.8-65.3,16.5-69.7,2.7-.5,19.2-2.5,36.7-4.5,36.3-4,56.6-7.8,73.9-13.6,19-6.5,31.7-13.5,43.9-24.3,9.5-8.4,15.1-16.2,24.1-33.6,8.3-15.9,13-22.4,17.9-24.6C487.7-618.5,490.8-617.5,495.8-612.7ZM358-269.3c13.8,9.3,32.7,17.3,48.5,20.4,11,2.2,34.9,1.7,46.1-.9,5-1.2,9.7-2.4,10.6-2.7,1.4-.6,1.6.9,1.4,12.2-.1,12.1,0,13.1,2.7,18.5,9.5,19.4,43,34.2,99.1,43.7l15.9,2.7L571-163.7c-19.7,20.5-36.7,33.1-59.5,44.2-34.1,16.6-70.8,23.4-110.8,20.6-42.9-3.1-79.6-14.9-118.5-37.9C262.9-148.3,226-177,230.6-177c2.6,0,36.4-9.7,50.4-14.5,18.7-6.4,38.6-16.3,44.5-22.1a47.114,47.114,0,0,0,6.2-7.7c5.1-10,8.5-26.6,9.9-48.5l.7-11.2,4.1,3.3C348.6-275.8,353.9-272.1,358-269.3Z"/><path d="M394.8-521c-10.5,1.8-25.7,8.1-31.5,12.9a31.948,31.948,0,0,0-4.7,5.6c-4.9,7.2-2.7,20.3,3.8,23,3.7,1.6,6.9.7,20.6-5.5,9.1-4.2,11.2-4.6,28.9-6.7,5.1-.5,9.1-4,9.1-7.7,0-8.8-4.1-17-9.9-20C407.5-521.3,400.4-522,394.8-521Z"/><path d="M497.4-482.5a10.551,10.551,0,0,0,.3,19c4.7,2.3,9.5,1.3,12.7-2.6C517.9-475,507.8-487.8,497.4-482.5Z"/><path d="M399.1-466.4c-7.9,6.6-3.3,18.7,7.2,18.7,7.9,0,13-9.3,8.7-16.1A10.443,10.443,0,0,0,399.1-466.4Z"/><path d="M462.6-464.7c-4.4,4.4-8.6,30.7-6.7,41.4,1.2,6.4,5.3,13.1,9.1,15,3.4,1.7,10.3,1.6,14.6-.2,2.6-1.1,4-2.6,5.6-6.2,1.8-4.1,2-5.9,1.5-14.3-1.1-15.4-5.3-28.9-10.9-34.8C471.8-467.9,466.2-468.3,462.6-464.7Zm11.2,11.1a83.029,83.029,0,0,1,5.5,28c.2,7.1,0,8-2.2,9.7a8.486,8.486,0,0,1-9.3.8c-5.1-2.7-6.4-15.8-3.3-33.3C466.9-462,469.8-463.7,473.8-453.6Z"/><path d="M398.3-389.1c-6.8,4.3-8.5,14.7-4,23.7,7.1,14,26.4,27.6,46,32.6,26.2,6.6,62.6-8.4,62.9-26,.1-9.9-3.3-11.2-27.8-11-12.4.2-20.5-.2-23.4-1-2.5-.7-12.6-5.3-22.6-10.4C409.1-391.4,404-392.7,398.3-389.1Zm30.2,15.6c22.6,11.2,27,12.2,50,11.1,7.8-.4,14.9-.4,15.8,0a2.946,2.946,0,0,1,1.7,2.8c0,8.9-19,19.7-37.2,21.2-10.4.8-20.1-1.4-32.4-7.6-17.7-8.9-28.2-20.9-27.1-30.8.6-5.4,2.7-7.3,7.1-6.6C408.1-383.1,418.1-378.6,428.5-373.5Z"/></g><g transform="translate(0 37)"><path d="M410.358-721c12.4,2.5,22.3,9.2,27.6,18.6l3.1,5.4,4.9-2.5c25.2-12.8,46.5-2.3,63.2,31a144.326,144.326,0,0,1,7.2,17.8c2.4,7.5,2.7,10,2.3,18-.3,7.9-.8,10-3.3,14.6-6.5,11.8-24.7,21.2-45.7,23.7l-5.5.6,2.3,6.7c4,11.3,2.9,25.2-4.3,53.1-9.4,36.8-17.2,67.9-17.7,71.2-.6,3.2-.4,3.8,1.1,3.8,3.2,0,12.1,4.8,16.6,8.9a40.072,40.072,0,0,1,7.2,9.8c7.3,14.7.7,34.2-15.2,44.7-5.6,3.7-6.2,4.4-6.2,7.7-.1,5.5-3.8,18.7-6.6,23.4-3,5.3-6.9,7.9-11.7,7.9-4,.1-7.7-2.7-12.8-9.6l-2.7-3.7-1.2,10c-1.5,13.6-1.4,25.1.4,32.8.9,3.5,5.5,14.7,10.4,25,15.3,31.8,19.1,43,19.1,55.3,0,17.7-9.1,28.1-30.4,34.7-8.2,2.5-11.5,2.7-12.3.5-1-2.8,1-4.6,6.7-6.1,14.4-3.7,25.6-11.7,27.9-19.9,3.6-12.8-.4-26.9-17.4-61.4-11.1-22.6-12-26.2-12-45v-15.6l-4.6,12.1c-7.5,19.6-15.4,34.2-26.1,48.4l-4.8,6.4v22.1c0,44.9,4,65.2,14.4,72.8,5.1,3.7,17.1,9.8,27.2,13.8s43.8,14.1,59.1,17.6c14.3,3.3,14.6,1.5-2.7,16.8-22.3,19.8-41.7,32.9-68,46-35,17.4-70.3,25.6-109.5,25.6-25.1-.1-46.1-3.2-68-10.2-11.5-3.7-35.8-15.5-46-22.4a240.779,240.779,0,0,1-48.9-44.9c-5.4-6.7-6.2-8.1-4.8-8.7.9-.4,6.9-1.4,13.2-2.3,33.4-4.8,65.6-13.4,81.3-21.8,7.6-4,15.2-10.9,17.9-16,1.8-3.5,2-5.8,1.9-16.2,0-6.6-.6-18.4-1.2-26.2-.6-7.9-.9-15.4-.7-16.7.4-2-.1-2.7-2.5-3.7-9.9-4.1-24.2-16.4-31.4-26.9-4.2-6.2-10.1-18-13.3-26.9l-2.7-7.4-.8,5.9c-.9,7.3-4.9,21.2-7.6,26.7-4.1,8.1-12.4,14.7-18.6,14.7a30.17,30.17,0,0,1-6.6-1.1c-3.3-.9-3.8-1.4-3.5-3.7.3-2.6.5-2.7,6.5-2.7,6.9,0,10.1-1.7,14-7.4,6.3-9.3,9.3-23.5,10-47.7.5-15.2.2-21.5-1.2-31.4-1.9-13.5-1.7-32.7.5-42.7.6-2.9,1-6.1.8-7-.2-1-1.4,3.1-2.6,9.2-4.3,20.8-8.8,30.9-15.1,33.5-8.7,3.6-18.5-11.7-24.4-38-1.9-8.4-2.2-12.7-2.2-36,0-28.2.7-34.5,6.1-56,8.2-32.7,25-72.3,40.4-95.3,20.3-30,47.7-49.7,81.4-58.2,17.4-4.4,30.7-5.7,56-5.3l22.8.3,2.2-6.5c2.7-7.8,3.5-9.5,9.7-18.6C366.458-715.6,388.458-725.4,410.358-721Zm-62.6,176.6c-22.7,15-33.7,18.9-58.6,20.4-17.9,1.1-25,2.6-37.1,7.8-10.8,4.7-15.9,7.6-23.5,13.5-5.5,4.3-5.7,4.6-3.8,5.7,4.4,2.3,6.6,10.5,3.6,13-1.5,1.2-3.3,1.2-15-.6-4-.6-4-.6-9.1,6.3-7.6,10-11.2,16.4-11.9,20.8l-.7,4,7.6.1c6.4.1,8.6.7,14.8,3.7,9.1,4.3,14.4,8.7,13.5,11-.9,2.4-3.5,2.1-7.4-.9a36.053,36.053,0,0,0-22-7.8c-3.9-.1-7.4.2-7.7.5-1.4,1.3-3.7,16.6-4.7,30.8-1.3,18-.6,46.9,1.6,61.8,7.2,50.3,30.2,79.7,68.6,87.8,12.5,2.7,29.9,3.7,41,2.5,53.5-5.9,86.1-41,106.3-114.1l2.3-8.5-4.8-11.8c-11-26.7-20.8-63-23.9-88.6-.5-4.6-1-14.1-1-21,0-22.3-2.7-37.8-7.3-42.1C364.458-553.9,360.158-552.7,347.758-544.4Zm94.2,107.4c-.1,9.2.4,13.3,2.3,20.5,1.3,4.9,2.7,10.7,3,12.8.7,3.7.7,3.7,3.5,2.3,6.2-3.3,12.4-12.8,14.1-21.8,2.1-10.8-4.1-21.6-15.4-26.9l-6.1-2.9-.7,2.2A130.314,130.314,0,0,0,441.958-437Zm-97.8,165.2c-24.6,14.6-54.3,18.8-87.3,12.4-4.1-.8-8.8-1.7-10.4-2.1-2.8-.8-2.8-.8-2.2,3.1.3,2.2,1.1,13.7,1.7,25.7.9,18.8.8,22.5-.5,27-5.9,20.4-34.1,34.2-90.5,44.6-9,1.7-16.6,3.2-16.8,3.4-1.4,1.5,22,24.4,34.7,34,18.4,13.9,45.1,26.4,68.5,32.1,22.3,5.3,60,6.8,82,3.2,38.7-6.3,70.7-18.8,103-40.4,14.2-9.5,39.1-28.9,38.2-29.8-.2-.2-7-2.2-15-4.4-38-10.4-62-20.3-73.3-30.3-10.9-9.6-15.4-30.2-15.4-70.5v-20.4l-4.4,3.9A101.855,101.855,0,0,1,344.158-271.8Z" transform="translate(-122.052 722.038)"/><path d="M323.2-494c13,2.1,22.2,8.8,21.6,15.8-.3,3.7-.3,3.7-5.4,4-2.8.2-9.3-.6-14.4-1.8-11.3-2.4-14.5-2.5-24.3-.4-4.2.8-9.3,1.4-11.4,1.2-3.4-.3-3.8-.6-4.1-3.3-.4-4.6,3.4-9.5,10-12.9,4.6-2.3,7.3-2.9,14-3.1A86.465,86.465,0,0,1,323.2-494Z" transform="translate(-111.195 722.038)"/><path d="M401.543-442.6c3,3,4.2,7.3,5.6,21.5,1,10.1,1,12.4-.4,17.9-2.1,7.8-4.9,11.7-10,13.7a14.337,14.337,0,0,1-15.1-2.5c-2.9-2.7-3.1-3.3-3.4-11.2-.8-20.1,8.2-41.8,17.5-41.8A8.01,8.01,0,0,1,401.543-442.6Zm-8.9,6.8c-3.4,5.2-6.8,18.3-7.3,27.8-.6,10.5-.2,11.5,5.5,12.6,4.8,1,8.8-3.5,9.7-11,.8-6.2-1-26.8-2.6-29.8C396.643-438.6,394.443-438.5,392.643-435.8Z" transform="translate(-267.237 722.038)"/><path d="M340.117-438.2c8.1,2.9,18,11.6,16.7,14.8-.9,2.4-3.7,1.6-7.4-2.2-8.9-9.3-21.8-11.5-35.2-6-5.1,2.1-7.2,2.5-8,1.7-1.9-1.9.5-4.4,6.9-7C321.117-440.2,333.017-440.8,340.117-438.2Z" transform="translate(-143.711 722.038)"/><path d="M347.132-364.3c1.1.2,8.7,2.7,16.9,5.5,17.6,6,23.1,6.4,41.8,2.9,20.7-3.7,29.5-2.5,32.4,4.5,6.7,15.9-15.7,32.9-45.1,34.1-13.7.6-20-.6-30.8-5.9-9.3-4.7-21-15.4-24.2-22.3-2.8-5.9-2.5-13,.6-15.9C341.432-364,344.132-365,347.132-364.3Zm-4.1,8.9c-1.7,6.9,9.7,19.9,23.5,26.7,8,4,8.9,4.2,19.2,4.5,16.8.6,31.9-3.4,40.3-10.8,6-5.3,8-10.7,5.3-14.4-1.8-2.4-9.4-2.3-24.2.4-20.4,3.7-27.4,3-49-4.9C344.932-358.7,343.832-358.8,343.032-355.4Z" transform="translate(-256.826 722.038)"/></g><g transform="translate(304 216)"><g transform="translate(-106.183 645.013)"><path d="M224.5-642.7a58.623,58.623,0,0,0-10.6,5.5c-8.6,5.9-11.9,11.1-18.8,30.2-7.4,20.2-11.5,25-28.3,32.9-30.9,14.7-62.8,58.9-60.5,83.8.7,7.4,2.1,10.3,7.7,16.3,10.7,11.5,12.1,23.2,6.4,53.5-7.9,42.2-7.8,41.5-7.8,57.5-.1,12.2.3,16.9,1.8,22,4.7,16.3,16,33.4,30.1,45.4,13.6,11.5,34.1,23.5,49.7,29.1l7.8,2.8,3.9,7.1c5.6,10.2,14.6,21.8,24,31.1l8.2,8-.6,5c-1.1,8.5-4.4,20.6-6.6,24.1a24.031,24.031,0,0,1-5.2,5.8c-4.4,3.2-18.4,10.2-28.7,14.1-9.6,3.7-38.7,12.2-53,15.5-5.2,1.2-9.9,2.6-10.3,3-.5.4,3.1,4.4,8,8.8,41,37.7,86.3,61,134.8,69.3,15.7,2.7,44.4,3.6,59.7,1.9,24.8-2.7,43.6-7.9,64.3-17.9,26-12.5,47.4-29.7,68-54.6l6.6-8-3.8-.7c-2.1-.4-11.1-1.8-19.9-3.2-29.3-4.7-59.6-13.6-71.2-21-6.5-4.1-11.2-8.6-13.4-13-1.8-3.5-2.1-5.7-1.9-15.6l.1-11.5,8.5-7.8c13.5-12.5,27.8-31.5,36.3-48.2,1.6-3.3,3.8-6.7,4.8-7.6,1.1-.8,8.5-5.5,16.6-10.3,34.2-20.3,54.7-38.6,63.3-56.7,6.9-14.5,5.9-26.5-4.5-57.9-11.4-34.2-12.4-42.7-9.2-78.5,1.2-12.7,2.4-27.8,2.7-33.6.8-12.4-.8-31-3.6-41.8-4.3-16.7-14.2-30.7-25.9-36.3-6.1-2.9-18.6-5.8-25.2-5.8a76.413,76.413,0,0,1-22.7-4.1c-8.6-3.2-15-8.1-25.9-19.8-16-17.2-23.1-19.7-46.6-16.5a206.082,206.082,0,0,1-65-1.5C246.1-645.8,233.5-646,224.5-642.7ZM356.6-521c8.2,3.7,14.1,7.8,22.5,15.8,15.5,14.6,33,42.9,45.4,73.4l4,9.8H436c14.5.1,28,4.5,35.4,11.7,4.5,4.4,7.4,10.8,8.8,19.6,1.2,8-.1,14.9-4.2,21.5-4.2,6.9-14.9,11.1-30.4,11.9l-11.2.6-3.8,13.6a341.05,341.05,0,0,1-22.1,58.6c-21.1,43.4-44.3,67.1-75.5,77.3-10.2,3.4-16.5,4.3-30,4.2-20.9,0-37.7-4.7-53.3-14.9-33.4-21.9-57-67.8-66.2-129.1-.9-6.1-2.2-11.1-3.1-12.2-1.9-2-8.8-3.5-20.4-4.3-24.2-1.7-31-6.9-31.8-24.5-1.2-24.8,12.5-37,44-39.5l8.8-.7,11.7-8.1c25.8-17.7,41-31.6,50.1-45.7,11.2-17.6,22.6-26.2,44.4-33.9,16.3-5.7,38.5-9.2,53.2-8.5C348.5-524,351.5-523.4,356.6-521Zm-89,319.1c27.2,9.2,57.8,7.3,82.4-5.1l6-3v9.2c0,10.2,2,16.1,7.5,22.6,8.2,9.7,29.9,19.5,58,26.2,8.1,1.9,34.8,7,36.8,7,1.8,0-.1,2.3-10.3,12.6C411.1-95.1,367.3-77,313.8-77c-58.2-.1-108.5-20.6-162-66.1l-3.1-2.6,4.9-1.2c27.6-6.8,57.3-17.4,71.1-25.3,12.3-7,16.6-13.8,20.2-31.5l1.6-8.1,6.1,3.4A120.127,120.127,0,0,0,267.6-201.9Z"/><path d="M245-442.9c-5.7,1.1-21,8.7-27.5,13.6-12.2,9.4-14.9,21.7-6.8,31.3,2,2.4,3.3,3,6.4,3s5.8-1.3,14.6-7.3c12.5-8.4,13.3-8.8,24.2-11.7,10.3-2.8,13.1-4.9,13.1-9.8,0-4.3-3.8-12.9-6.8-15.5-2.2-2-8.8-4.7-11.2-4.5A48.309,48.309,0,0,0,245-442.9Z"/><path d="M345.6-442.5c-5.4,1.9-9.3,6-11.6,12.3-3.7,9.8-1.7,12.7,11.7,16.2,10.5,2.9,15.2,5.1,23.2,10.9,14.4,10.4,19.6,10.8,24.3,1.8,2.6-5.1,2.9-12.9.6-17.2-4.7-8.8-22.1-20.5-35.5-24C351.4-444.3,350.6-444.3,345.6-442.5Z"/><path d="M246.1-384.6c-5.8,3.2-6.9,11.9-2.2,16.7,2.4,2.4,3.8,2.9,7.6,2.9,8.4,0,12.9-7.6,9.3-15.5C258.6-385.4,251.2-387.4,246.1-384.6Z"/><path d="M346.2-384.4c-8.9,6.2-4.7,19.4,6.2,19.4a10.329,10.329,0,0,0,6.5-18.4C355.3-386.4,349.7-386.9,346.2-384.4Z"/><path d="M298.3-370.4c-10.7,5.3-21.4,39.8-20.1,64.9.7,14.1,6,20.3,18.2,21.2,10.8.9,18.3-3.3,23.1-12.7,5.1-10.2,5.6-23.1,1.5-46-3.6-20-6.4-26.2-12.8-28C303.3-372.3,302.1-372.2,298.3-370.4Zm10.1,7c5.3,5.2,10.7,47.2,7.6,58.5-2.4,8.8-9,14.3-17,14.3-11.2,0-14-4.2-14-20.8,0-19.9,6.2-42.7,13.8-50.9C301.7-365.4,306-365.9,308.4-363.4Z"/><path d="M270-272.5a4.167,4.167,0,0,0-.5,3.5c.8,2.7,11.3,11.4,17.4,14.4,14.3,7.3,30.4,4.9,42.4-6.3,5.9-5.5,7.9-9,6.6-11.4-1.7-3-4.8-1.9-9.6,3.3-12.8,13.9-29.9,14-46,.3C273.7-274.3,272-274.9,270-272.5Z"/></g></g></svg>