<svg xmlns="http://www.w3.org/2000/svg" width="1072.502" height="1073" viewBox="0 0 1072.502 1073"><g transform="translate(465 81)"><path d="M414.3-981.7l78.8,40.2-11.8.6c-23.1,1.2-38.1,10.3-48.9,29.6-14.8,26.5-13,49.4,5.4,69.3,20.8,22.4,52.5,30.2,76.2,18.7,19.4-9.4,36.1-36.8,36.1-59.1,0-9.8-4.6-22.3-12.2-33.5l-3.1-4.4L570.7-902c19.7,10,55,27.9,78.4,39.8,23.4,11.8,42.6,21.6,42.8,21.7.1.1-8.3,17-18.8,37.5-10.4,20.4-19,37.6-19,38.1s1.4,2.8,3.1,5.1c4.2,5.9,6.6,11.8,9.4,22.8,3.3,12.8,4.2,19.7,5.4,38.2,1.5,22.1,3.2,28.8,12,45a128.084,128.084,0,0,1,12.6,36.3c2.3,12.3,1.7,31.1-1.1,37.5-2.1,4.5-8.4,11-10.7,11-.9,0-1.2,6.1-1.3,24.8-.1,15.1-.8,29.9-1.7,38.2-1.6,13-1.5,13.6.3,17.8,2.7,6,2.6,11.6-.1,13.5l-2,1.5,2.1,4.2c5.7,11.2,12.2,32.1,15.2,49,2,11.6,1.7,44.8-.6,58.9-3.9,23.5-.1,52.7,14.4,111.1,6.6,26.4,19.3,70.9,30,105,3.9,12.4,7.3,24.1,7.6,26,.7,4.5-1.1,11.5-4.1,16l-2.4,3.5,2.6,8.5c3,9.9,3,9.7,4.5,8.2,1.7-1.7,2.3-1.5,6.2,1.9,4.1,3.6,10.3,13.4,11.2,17.6.5,2.8-.1,3.3-19.9,17L726.4-32.1l-17,.7c-9.3.4-18.2.4-19.6,0-2.4-.6-2.7-1.1-2.7-5.1,0-6.8,2.8-9.3,11.3-10.4,6.1-.7,7.2-.5,9.4,1.2l2.6,2-1.2-2.1c-1-1.9-.8-2.2,1.3-2.8,3.1-.7,4.4.1,5.7,3.3.5,1.4,1.2,2.3,1.6,2,.3-.3-.3-2.1-1.4-3.9-1.7-2.9-1.8-3.7-.6-5.4.7-1.1,2.3-6.9,3.5-12.9,1.7-8.5,2.5-10.9,4-11.3,2.2-.5,2.2-.3.1-4.7-1.6-3.3-2-3.5-6.4-3.5-8,0-10.2-2.7-18-22.1-13.6-34.2-34.2-101.6-49.4-161.9C621-382.4,611.7-418.4,611.3-416.9c-.1.9,5.2,23.3,11.8,49.9l12.1,48.3-2,12.1c-4,23.9-10.1,72.5-20.1,160-4.4,37.8-6.4,52.6-7.6,54.3-1.7,2.7-7,5.3-10.8,5.3-2.9,0-2.7-.5-5.6,14.5-1.6,8.5-1.7,10.1-.5,10.8,3.7,2,6.4,24.9,3.2,27.5C589-31.9,564.3-30,537.7-30c-29.4,0-29.6,0-29.6-6.5,0-4.7,2.7-6.3,14.4-8.2,10.7-1.8,12-1.4,13.2,4,.4,1.8.9,2.7,1.1,2,.2-.6-.3-2.7-1.1-4.6-1.3-3.3-1.3-3.5.7-4.1,2.5-.6,5.4,1.7,6,4.8.4,2,.4,2,.6,0a7.715,7.715,0,0,0-1.2-3.8c-1.1-1.5-.6-2.4,3.8-6.9,2.7-2.9,7.1-7.7,9.7-10.7l4.8-5.5,2.3,2.8,2.4,2.9.6-6.9c.4-3.7.7-8.9.7-11.4,0-4.5-.1-4.6-4-5.8-2.2-.6-4.5-2.1-5.1-3.4-1.4-2.5-1.4-1.2,1.1-51.7,2.9-57.9,5-110.3,5-125.8,0-40.4,8-95.3,25.6-176,2.4-11.2,4.4-20.5,4.4-20.8,0-.2-1.3-.4-2.9-.4-2.5,0-3-.5-3.5-3.3-.8-4.2-5.6-37.6-5.6-38.8,0-.5-1.7-.9-3.8-.9a35.73,35.73,0,0,1-7.7-1.1c-5.2-1.4-22.4-8.9-29.5-12.8-3-1.7-6-3.1-6.7-3.1-.6,0-4.8,7-9.3,15.5L516-495l-21.7-10.9c-11.9-6-46.8-23.7-77.5-39.4l-55.7-28.4,8.2-2.2c25.9-7.1,42.2-17.9,50.5-33.7a58.868,58.868,0,0,0,7-30.9c-.6-10.9-3-18.1-9.2-27.4-10-15.2-26.4-25.8-47.1-30.7-9.3-2.2-23.8-1.5-31.6,1.5-12.3,4.7-23.4,15.9-31.2,31.4-10.9,21.9-10,40.2,3.1,60,2.6,3.9,5.2,7.8,5.7,8.6s-3.8-1.1-9.5-4.1c-5.7-3.1-41.2-21.2-78.9-40.3-37.7-19.2-68.6-34.9-68.8-35-.1-.1,16.8-33.5,37.5-74.2l37.8-74.1.7,7.1c1.8,16.8,6.7,27.8,16.7,37.7,15.7,15.4,41.4,25,61.6,22.8,25.1-2.8,49.1-30.3,51.2-58.8,1.2-16.1-4.2-28.7-18.1-42.5-9.7-9.6-16.6-14.2-27.4-18.3-6.1-2.4-8-2.6-21.2-2.6-15.2.1-18.8.8-34.8,7.2-2.8,1.2-5.2,2-5.2,1.8,0-.9,76.9-151.6,77.3-151.6C335.5-1021.9,371-1003.8,414.3-981.7ZM303.9-951c-17.9,34.9-33.5,65.5-34.8,67.9-1.9,3.8-2,4.3-.4,3.7,5.8-2.2,18.2-4.7,25.9-5.3,27.7-1.8,56.1,15.2,69.3,41.6,4.6,9.3,4.7,9.6,5.1,20.6.4,13.6-1.1,20.3-7.4,33.2-6.2,12.7-17.2,24.4-28.4,30.2-17.7,9.2-34.1,9.3-56.3.4-22.3-8.9-37-23.6-43.2-43.3l-2.2-6.7-32.7,64.1c-18,35.4-32.7,64.7-32.7,65.2,0,.6,13.6,7.9,30.2,16.4,16.7,8.4,47.3,24,68.1,34.7,20.8,10.6,38,19.3,38.2,19.3s-.7-2.4-2-5.3c-2.6-5.5-5.5-17.8-5.5-22.8,0-9.9,6.1-28.1,12.9-38.6,12.9-19.8,27.8-28.5,49.1-28.6a79.181,79.181,0,0,1,57.3,25.2c7.7,8.2,11,13.5,14.5,23.4,4.9,13.9,2.9,33.2-5.1,48.1-7.1,13.4-22.2,25.4-39.9,31.7-4.8,1.8-8.8,3.5-8.8,3.8s10.9,6.1,24.2,12.8c13.4,6.7,44.7,22.6,69.5,35.3l45.3,23,6.7-13.2c3.7-7.3,6.9-13.6,7.1-14,.2-.3-3.6-3-8.5-5.8-4.8-2.9-14-8.5-20.3-12.5l-11.5-7.3-9-.4c-8.9-.5-9.4-.7-22.5-7.4-17.7-9.1-19.2-12.6-2.5-5.9a32.986,32.986,0,0,0,6.1,2.2,89.242,89.242,0,0,0-7.2-6.7c-16.5-14.7-13.7-17,4.1-3.4,3.5,2.6,3.2,2-2.8-5.3-6.9-8.6-9.2-12.1-8.4-13,1.1-1,5.5,2.3,11.2,8.5,7.6,8.3,17.5,14.8,17.5,11.4,0-.4-2.7-3.7-6-7.4-6.3-6.9-7.2-8.8-4.3-8.8,3.1,0,8.6,4,15.5,11.1,5.8,6.1,8.2,7.7,20,13.4,18.6,9,38.2,17.4,38.9,16.6.4-.3,10.2-19.3,21.8-42.2l21.1-41.5-8.4,2.8c-11.2,3.7-22.6,4.6-33.1,2.4-21.4-4.4-43.7-21.4-52.6-40-4.9-10.1-6.3-17.6-5.5-28.6a71.171,71.171,0,0,1,34.6-56.2c13.4-7.9,32.5-9,49.5-2.9,4.9,1.8,9.8,3.5,10.7,3.8,1.3.4,2.3-.8,4.3-5.3a37.107,37.107,0,0,1,5.8-9.3c7.4-7.8,24.7-12.3,39.1-10.1,8.4,1.3,17.6,4.1,21.4,6.6,1.3.9,2.8,1.2,3.2.7,1.2-1.2,35-67.9,35-68.9,0-.9-12.1-7.2-95.1-49.3L548.3-908l2.9,8.2c2.4,6.9,2.9,9.9,2.9,17.8,0,12.2-1.8,18.9-8.3,31.5-4.2,8.1-6.9,11.7-14.2,19.1-9.9,10.1-15,13.2-27.2,16.5-13.5,3.7-30.1,1.5-45.8-6.2a76.2,76.2,0,0,1-25.3-19.2c-10.6-12-15.2-23.7-15.2-38.7,0-16.7,11.4-41.5,24.2-52.5,5.9-5,19-11.3,26.6-12.7l6.2-1.2-27.7-14.2c-15.3-7.8-46.3-23.7-68.8-35.2-22.6-11.6-41.3-20.7-41.6-20.4C336.6-1014.8,321.7-985.9,303.9-951ZM533.5-753.9c-14.4,2.6-27.4,12-36.6,26.5-7.8,12.2-10.8,21.8-10.8,34.9,0,16.3,4.8,27.4,17,39.5,13.8,13.8,28.7,20.9,45.5,21.7,12.3.7,22.5-1.7,34.6-7.7,4.3-2.2,7.9-3.8,7.9-3.5,0,.4-7.4,15.1-16.5,32.9s-16.5,32.8-16.5,33.3c0,1,15.1,11.3,16.4,11.3.4,0,.6-1.9.6-4.3,0-6.9,2.8-24.5,5.5-34.5,6.1-22.8,14.3-36.6,25.6-42.9,2.7-1.6,4.7-3.3,4.5-3.9s-1.8-5.7-3.6-11.2c-1.7-5.6-3.3-10.2-3.6-10.2a35.939,35.939,0,0,0-4.2,1.6,43.267,43.267,0,0,1-9.7,2c-10.7.9-15.6-3.8-17.7-17.2-1.2-7.9.2-25.7,3.1-39.5,1.6-7.8,1.6-8.7.2-9.6s-1.4-1.6-.3-5.9c1.6-5.9,1.3-6.2-9.9-9.9C551.9-754.9,543.7-755.8,533.5-753.9Zm59.1,15.3c-6.6,2.1-12.6,4-13.3,4.2-1,.3-.9,1,.4,2.9.9,1.4,1.4,2.9,1,3.3-.4.3-1.1,0-1.5-.7-1.4-2.3-2.3.6-1.6,5,.5,3,.3,4.5-.9,5.8-3.8,4.2-4.7,34.1-1.3,40.8,3.1,5.8,6.3,7.5,13.8,7.1,5.3-.3,8.3-1.2,14.2-4.2,4.1-2.1,8.6-5,10-6.4,2.4-2.6,2.4-3,1.6-9.7a72.979,72.979,0,0,1-.3-14,60.306,60.306,0,0,0-.6-13.5c-1.8-9.7-6.9-25.2-8.3-24.8C605.1-742.6,599.2-740.8,592.6-738.6Zm18,62c-2.2,1.7-4.2,3.2-4.4,3.3-.5.4,5.9,21.6,6.8,22.5.3.3,3.5.1,7.1-.6,6.5-1.2,6.5-1.3,6.3-4.5,0-1.9-1.7-6.3-3.6-10a78.731,78.731,0,0,1-4.7-10.8C616.7-681.3,616.8-681.3,610.6-676.6Zm-1.1,30.2c-11.1,5.2-18.3,15-24.3,33-6.4,19.2-9.5,43.3-8,61.6.6,6.2,1.2,11.9,1.4,12.6.7,1.9,12.3-4.3,29.5-15.9,8.3-5.5,15.2-10.4,15.5-10.8.2-.5-.6-2.2-1.9-4l-2.4-3.2,1.9-6.2c2.5-8.1,2.4-8.3-1.2-5.3-2.9,2.5-7.3,3.4-9.4,1.8-6.1-4.3-7.2-13.4-3-25.8a230.917,230.917,0,0,1,9.9-22.1c4-8.2,7.7-15.9,8.1-17.2.7-2.4.7-2.4-4.8-1.8A42.312,42.312,0,0,0,609.5-646.4Zm45.1,21.3c-5.1,2.3-11.8,9.7-20,22-6.6,10.1-8.5,13.8-11.5,23.6l-1.9,6,4.3,5.5c8.2,10.4,25.3,21,33.9,21,6.3,0,10.9-4.4,16.5-15.5,4.9-9.9,6.2-15.7,6.2-28.1,0-13.7-1.2-19.7-5-25.8-3.5-5.4-11.1-10.6-15.4-10.6A21.555,21.555,0,0,0,654.6-625.1ZM451-586.8c1.7,2.4,6,7.7,9.6,11.8,9.5,11,8.8,12.1-2,3.4-12.3-9.8-13.3-9.9-3-.1,5.5,5.2,9.7,9.8,9.4,10.1s-4.1-1-8.3-3c-11.3-5.2-10.5-3.4,1,2.4,11.3,5.7,14.2,6.4,23.3,6.4,6.6-.1,6.7,0,18.6,7.7,23.9,15.5,53.6,31.2,67.3,35.6,18,5.9,44.8-5.4,74.5-31.4l5.7-5-5.2-2.7a55.58,55.58,0,0,1-10.9-8.1l-5.8-5.5-8.3,5.9c-18.6,13.2-32.5,21.3-40.5,23.7-5,1.4-5.6,1.4-12-.8-15.8-5.5-48.3-19.2-67.8-28.7-9.3-4.5-12.3-6.6-20.2-14.1-10.9-10.5-15.6-12.1-6.4-2.3,8.7,9.3,8.1,12.5-1.4,8.1-3.6-1.6-7.8-4.9-12.7-10-4-4.2-7.4-7.6-7.6-7.6S449.4-589.1,451-586.8Zm98.1,28c0,.7,13.5,12.3,21.6,18.6,5.6,4.3,6.8,4.2,6-.6-.3-2.1-.9-7.8-1.2-12.6l-.7-8.9-9.1-5.8-9-5.9-3.8,7.3A60.092,60.092,0,0,0,549.1-558.8Zm121.5,7.6c-5.6,6.3-11.2,7.3-20.6,3.7-.8-.3-5.2,2.7-10.4,7.1-10.8,9.1-28.9,21.4-36.5,24.7a120.57,120.57,0,0,1-18.1,6.1l-2.6.6,2.8,18.7c1.5,10.4,2.8,19.6,2.9,20.7,0,1.8,1,1.8,23.2,1.3,17.4-.4,27.6-1.2,40.3-3,9.3-1.4,19.5-2.8,22.5-3.2,3-.3,6.2-1,7-1.5,2-1.2,1.8-7-.5-12-1.8-3.9-1.8-5-.6-17.3,1.5-15.1,2.7-59.7,1.7-62.3-.5-1.3-1.5.1-4,5.3A57.694,57.694,0,0,1,670.6-551.2Zm-127.5,3.8c0,1.7,25.9,11.9,28.2,11.2.6-.2-2-2.9-5.8-5.8-3.7-3-9.3-7.7-12.3-10.3l-5.5-4.8-2.3,4.3A34.852,34.852,0,0,0,543.1-547.4ZM735-93.6a43.072,43.072,0,0,1-8.3,6L723.2-86l2,4.8c2.3,5.5,4.2,7.2,8.2,7.2,3.8,0,12.7-4.8,12.7-6.9s-5-17.1-5.7-17.1C740.1-98,737.7-96,735-93.6ZM568-83.8c0,1.8-.4,7.3-.7,12.2-.7,8.1-.6,8.9,1.3,10.2,2.2,1.5,13.2,1.9,15.4.5,1.1-.7,5.9-20.4,6.1-24.9,0-.9-2.8-1.2-11-1.2h-11ZM745.1-49.5,725.2-36H706.6c-17.2,0-18.6.1-18.3,1.7.3,1.7,1.9,1.8,19.2,1.5l18.9-.3,16.1-11.1c18.8-13,23.6-16.6,23.6-17.9,0-.5-.3-.9-.6-.9S756-56.9,745.1-49.5ZM571.1-35c-7.4.5-24.2,1-37.3,1-18.7,0-23.8.3-23.5,1.2.8,2.2,50.1,2.2,67.2,0,9.6-1.2,14.1-2.1,14.4-3.1s-.4-1.2-3.4-.7C586.3-36.3,578.5-35.5,571.1-35Z" transform="translate(-159.299 1022)"/><path d="M334.11-727.1c4.2,3.7,3,5.3-1.3,1.6-2.7-2.2-4-2.6-8.1-2.3-2.9.2-4.7-.1-4.5-.7s2.7-1.1,5.5-1.3C330.11-730.1,331.21-729.7,334.11-727.1Z" transform="translate(109.891 1022)"/><path d="M333.935-721.7a3.956,3.956,0,0,1-.2,5.6c-1.7,1.4-3.7-.5-3.7-3.5C330.035-722.1,332.235-723.4,333.935-721.7Z" transform="translate(101.766 1022)"/><path d="M349.672-714.3c1.4.5,1.8,9.8.7,12.7-.7,1.9-3.5,2.1-5.2.4-2-2-1.4-8.4,1-11.2C347.472-713.7,349.072-714.6,349.672-714.3Zm-3.6,4.4c-1.5,4.4-1.4,7.6.4,8.3,1.9.7,3.5-2.3,3.5-6.7C349.972-713.9,347.772-714.8,346.072-709.9Z" transform="translate(71.829 1022)"/><path d="M350.572-696c0,1.9-6.5,5-10.3,5-2.3,0-3.6-.4-3.2-1,.3-.6,2.1-1,3.9-1a11.275,11.275,0,0,0,5.9-2C349.672-697.2,350.572-697.5,350.572-696Z" transform="translate(79.229 1022)"/></g><g transform="translate(-193.2 1156.901)"><path d="M528.9-1155.2c-9.4,3.1-15.7,7.2-23.2,15.1a70.562,70.562,0,0,0-16.8,29.1c-3,9.6-3.3,27-.6,33.9,1,2.4,1.5,4.6,1.3,4.8s-26.9-14.9-59.4-33.6c-32.5-18.8-59.5-34.1-60-34.1s-35.9,60.6-78.7,134.7c-42.9,74.2-82.5,142.7-88.1,152.4l-10.2,17.6,30.9,17.9C247.4-804,255-799.1,255-797.7c0,5.8,5.8,11.7,11.5,11.7,1.8,0,4.2,1.5,7.5,4.7l4.8,4.8.6,15.5.5,15.6-9.2,2.8c-13.3,4-19.4,7.3-26.3,14.1-7.1,7-10.8,13.6-12.3,22-1.5,7.8-1.4,38.2.1,60.2,1.4,20.2,1.5,37.7.3,85.1-.7,30.6-.7,33.4.9,35.1,1.4,1.6,1.6,2.6.7,5.8-3.9,14.8-5.7,41.6-4.2,62.8,1.6,21.4,3.4,33.3,7.8,49.5,2,7.4,4.4,16.6,5.4,20.4,4.4,16.3,4.5,49.2.3,95.1-2.5,27.2-3,80.2-.9,102.5,1.7,19,2.7,22.7,6.6,23.7,1.7.5,1.9,1.5,1.9,8.3s-.2,7.8-1.9,8.3c-2.9.7-3.6,7.1-3.6,30.7,0,17.5.3,21,1.7,23.7,4,7.3,14.7,10.1,41.3,11,14.9.5,19.1.3,24.5-1.1,11.9-3.1,17.8-10.2,16.5-20.2a15.51,15.51,0,0,0-3-8.2l-2.3-2.7H308.3c-14.5-.1-16.3-.3-21.8-2.5l-6-2.5v-13c0-7.2-.4-13.7-1-14.5-.5-.8-.8-4.9-.6-9,.2-6.1.7-7.7,2.3-8.8a10.751,10.751,0,0,0,2.8-3.8c2.3-5.9,10.7-97.6,20.2-218.7,2.9-37.2,5.5-67.7,5.8-67.7s2.7,8.1,5.4,18c13.3,50,26,88.3,35.8,109l6,12.5-1.3,64.7c-.6,35.6-.9,68.4-.6,73,.6,7.1,1,8.6,3,10.3,2.3,1.9,2.4,2.5,1.9,10.7-.4,7.2-.7,8.7-2.2,9.1-2.8.7-3.5,7.4-3.5,31.4,0,19.7.1,21.3,2.1,24,3.2,4.4,9.8,7,22.3,8.9,12.7,1.8,38.8,1.5,45.2-.5,9.2-2.9,14.2-9,14.2-17.5,0-6.7-2.3-11.1-6.5-12.5-1.8-.6-9.6-.9-17.3-.8-13.4.2-14.2.1-19.9-2.6l-5.9-2.7.6-12.7c.5-9.6.4-13-.6-14.2-.9-1.1-1.2-3.7-.9-7.9l.4-6.2h3.9c5.2,0,6.4-2.1,8.3-15,4.2-28.2,8.9-101.3,8.9-138.5.1-22.9-.3-29.1-2.1-40.5-6.4-40.9-20.2-94.5-31.3-122.3a240.85,240.85,0,0,1-8-24.7c-2.1-8-4.6-17-5.6-20a20.517,20.517,0,0,1-1.2-10.5c.3-2.8,1-20.2,1.4-38.8l.8-33.7h5.2c7.3,0,14.1-2.3,28.7-9.6,19.6-9.8,48.4-27.5,63.5-38.9,3.7-2.8,5.2-3.3,12.5-3.8a57.966,57.966,0,0,0,12.3-2c5.8-2.1,29.5-15.6,29.5-16.9,0-1.6-5.6-.2-12.9,3.2a58.08,58.08,0,0,1-6.9,3c-.3,0,4.1-4.5,9.8-10.1,7.4-7.2,10-10.3,9.2-11.1s-2.3-.3-5.4,1.8c-7.2,4.9-7.3,4.9-5.1,1.3,1.7-2.7,39-66.9,52.7-90.7l3.1-5.3,1.6,6.8a87.517,87.517,0,0,0,3.2,10.6c11.9,27.7,52.5,43.1,78.5,29.8,10.6-5.4,22.6-17.7,28-28.6,11.8-24.1,8.6-49.3-8.7-66.6-16.4-16.3-41.1-23.1-60.3-16.5-3.8,1.2-6.8,2.1-6.8,2,0-.2,15.8-27.3,35-60.4,19.3-33.1,35-60.5,35-60.8,0-.4-3.3-2.5-7.3-4.8-31.7-18-106.7-61.7-106.7-62.3,0-.3,2.4-1.2,5.3-1.9,11.4-2.7,23.5-11.2,32.3-22.7,11.5-15,16.3-33.6,12.9-50-4-19-17.2-33.5-38.2-41.7C553.1-1157.2,537.8-1158.1,528.9-1155.2Zm27.1,3.7c13.6,3.6,28.1,13.7,34.9,24.4,5.5,8.5,7.4,15.4,7.4,26.6-.1,16-5.7,29.6-17.5,42-8.2,8.7-15.6,13.2-26.3,16.1-8.5,2.2-12.5,3.9-12.5,5.2.1.4,26.6,16,59,34.7l58.9,33.9-2.9,5.1c-1.6,2.7-18.6,32-37.9,65-19.2,33-34.9,60.1-34.8,60.2s4.8-2.1,10.4-4.9c9.5-4.8,10.7-5.1,19.5-5.6,11.7-.6,17.9.7,28.8,6,14.7,7.1,25.7,20,29.5,34.5,4.6,17.6-2.3,39.9-16.9,54.7-14,14.2-29.7,18.6-48.8,13.7-26.1-6.7-41.3-24.7-43.6-51.8l-.7-8.1L535-752.2c-25,43.4-28.2,48.6-36,57.1-8,8.9-15.7,15.1-18.7,15.1-1.9,0-.5-2.3,6.1-9.9,5.8-6.7,6.8-9.1,3.9-9.1-3.2,0-8.6,4-15.3,11.1l-6.5,7-74.2-42.8c-52.1-30-74.2-43.3-74.3-44.5,0-1,1.4-3.3,3-5.2a29.267,29.267,0,0,0,4.6-7.2c2.4-5.7,2.9-19.2,1.1-30.2l-1.6-9.4L331-829c6.7-15.3,8.3-23,5.8-28.5-1.3-2.8-13.2-9.1-26.5-14-10-3.7-11.7-5.2-10.3-8.9,1.7-4.7.8-5.6-6-5.6-9.8,0-25.3,5.8-32.5,12.1-3.1,2.8-3.5,3.6-3.5,8.3-.1,6.1-1,7.9-7.2,13.4-12.4,11.3-11.9,28.6,1.2,41.8,5.2,5.1,6.2,7.1,3.3,5.9-1.5-.5-55.1-31.2-56.2-32.1-.1-.1,10.7-19.3,24.2-42.6,13.4-23.3,52-90,85.7-148.3,33.6-58.3,61.5-106.3,61.9-106.8.4-.4,29.2,15.7,64,35.7,38,21.9,63.1,35.8,62.8,34.8-.3-.9-1.7-4.5-3.2-7.9-5.2-12.6-5.7-25-1.4-38.8,6.2-20.4,19.5-35.1,36.7-40.6C536.8-1153.3,548.5-1153.5,556-1151.5ZM280.5-837.6c2,1.4,6.5,3,10.4,3.6,6.2,1.2,7.8,1.1,16.9-1,5.5-1.3,10.7-2,11.4-1.7,1.5.5,6.3,16.5,7.8,26.2,1.4,8.7,1.2,21.5-.4,26.9-3.1,10.3-11.1,16-22,15.9-9.7-.1-18.7-4.6-28.8-14.4-3.8-3.6-5.9-4.8-9.1-5.2a10.75,10.75,0,0,1-9.7-11.1c0-4.9.9-5.6,6.8-5.6,6.2,0,6.7-.8,5.4-8.9-1.7-9.8-1.5-16.2.5-19.1,1.6-2.5,6.4-8,6.9-8A37.1,37.1,0,0,1,280.5-837.6Zm20.7,71.3a30.62,30.62,0,0,0,15.1-2.2c1.5-.6,1.7,0,1.7,6.6a49.8,49.8,0,0,0,1.6,12.4c1.6,5,1.6,5.4-.2,9.1-3.2,6.5-6.2,7.9-16.2,7.8-11.5-.1-16.5-2.5-19.4-9.2-1.7-3.8-2.2-7.4-2.6-18.9l-.5-14.3,7.1,4.1C293.5-767.6,296.2-766.7,301.2-766.3Zm21.5,5.8a5.611,5.611,0,0,0,3.1,1.3c1.3-.4,65.5,35.6,64.2,36-.5.2-15.1-7.6-32.4-17.3-29-16.2-31.8-17.6-35-16.9-3.4.6-3.6.5-3.6-2C319-762.4,319.7-762.6,322.7-760.5Zm105.8,61c35.7,20.5,36.4,21,34.4,22.7-4.6,3.8-51,26.2-75.4,36.3-9.8,4.1-13.2,4.4-19.5,1.9l-4.1-1.7.6-8.1c1.9-26.2,4.3-41.9,7.5-49.2,2.2-5.1,17.1-23.5,18.7-23.1C391.4-720.6,408.4-711.1,428.5-699.5Zm74.4,5.2c-2.4,3.2-7,9.2-10.2,13.3-3.3,4.1-5.4,7.6-4.8,7.8s5.3-3.2,10.4-7.5c13.9-11.8,14.2-11.7,2.3.5-6.1,6.1-10.7,11.4-10.4,11.7s4.4-1.3,9.2-3.6,8.9-4,9.1-3.7c.7.7-21.7,12.6-26,13.7A49.724,49.724,0,0,1,472-661c-5.9,0-7,.3-11.5,3.6-33.4,24.2-73.1,46.2-87.6,48.5-14.4,2.3-34.3-4.3-55.4-18.4-13-8.7-41.5-31.9-41.5-33.8,0-.8,15.8-22.8,18.6-25.8,1-1.1,2.6-.2,9.6,5.7,12.2,10.1,36.9,28.6,46.7,35,11.1,7.2,19.8,11.2,24,11.2,4.8,0,34.3-12.7,65.6-28.3l26-12.9,9-9.3c8-8.3,11.9-11.5,14-11.5.4,0-1.5,2.6-4.2,5.7-7.2,8.4-8.8,11.2-7.4,12.6.8.8,2.2.5,5.7-1.2,6.9-3.3,10.6-6.5,17-14.2C507.4-702.4,509.1-702.5,502.9-694.3ZM372-164.5a62.03,62.03,0,0,0,10.3,1.5H386v13.8l-4.7,1.6c-5.9,2-10.2,2-15.3,0l-4-1.6v-9c0-8,.2-8.9,1.8-8.4C364.7-166.3,368.4-165.4,372-164.5Zm-95,7.7v7.6l-4.7,1.6c-5.9,2-10.2,2-15.3,0l-4-1.6v-15.5l12,.1,12,.1Z"/><path d="M305.6-829.4c-1.9,1.9-2,2.6-.3,4.5.9,1.1,2.9,1.4,8,1.1,5.6-.3,6.7-.7,6.7-2.1a5.449,5.449,0,0,0-1.8-3.4C315.8-831.5,307.7-831.6,305.6-829.4Z"/><path d="M281.6-822.1c-2.7,1.8-5.5,5.5-5.6,7.3a5.516,5.516,0,0,0,1.6,2.3c1.5,1.5,1.9,1.4,4.3-.8a27.053,27.053,0,0,1,5.9-4.1c3.7-1.9,3.9-2.7,1.4-4.9C286.8-824.5,285.2-824.4,281.6-822.1Z"/><path d="M311.5-818c-2.1.8-5.3,4-4.1,4a15.46,15.46,0,0,0,3.6-2.1c2.2-1.7,3.6-2,6.5-1.5q3.75.75,3-.3C319.8-819.2,314.4-819.2,311.5-818Z"/><path d="M299.2-813.8c-1.6,1.6-1.5,6.6.1,9.8,1.7,3.4,6.1,3.5,6.5.2C306.5-808.8,301.6-816.2,299.2-813.8Zm4.8,6.6c.6,2.5.6,4-.1,4.7-1.6,1.6-3.9-2.3-3.9-6.8,0-3.4.2-3.8,1.5-2.7A12.432,12.432,0,0,1,304-807.2Z"/><path d="M284.5-809.8c-2.2,1.3-3.5,2.8-3.5,4.3.1.5.6.2,1.4-.7a9.4,9.4,0,0,1,8.6-3.1c1.6.4,2.1.3,1.6-.5C291.7-811.3,287.1-811.3,284.5-809.8Z"/><path d="M311.3-795.4a32.607,32.607,0,0,1-10.4,3.4c-7.1,1-8.3,2.2-6.4,6.1,3.1,5.9,13.3,9.6,18.1,6.4,3.4-2.2,6.6-9.5,6.2-14.3C318.4-798.4,316.8-798.8,311.3-795.4Zm5.7,2.7a21.647,21.647,0,0,1-2.2,7.7c-2,3.8-2.8,4.5-5.7,4.8a15.308,15.308,0,0,1-6.1-.8c-3.5-1.4-8.4-6.5-7.6-7.8.3-.6,3.2-1.3,6.5-1.7a26.379,26.379,0,0,0,9.7-3.1C316.7-796.7,317-796.6,317-792.7Z"/></g></svg>