<?xml version="1.0" standalone="no"?>
<!DOCTYPE svg PUBLIC "-//W3C//DTD SVG 20010904//EN"
 "http://www.w3.org/TR/2001/REC-SVG-20010904/DTD/svg10.dtd">
<svg version="1.0" xmlns="http://www.w3.org/2000/svg"
 width="664.000000pt" height="1303.000000pt" viewBox="0 0 664.000000 1303.000000"
 preserveAspectRatio="xMidYMid meet">

<g transform="translate(0.000000,1303.000000) scale(0.100000,-0.100000)"
fill="#000000" stroke="none">
<path d="M3284 12815 c-205 -44 -367 -205 -420 -415 -13 -50 -15 -91 -11 -175
9 -180 67 -311 180 -410 l52 -45 -702 0 -703 0 0 -667 0 -666 -59 57 c-146
138 -390 198 -597 146 -203 -52 -337 -169 -402 -354 -20 -59 -25 -91 -26 -186
-1 -133 12 -195 62 -295 116 -232 399 -338 692 -260 118 32 204 80 275 152
l55 57 0 -697 0 -697 194 0 195 0 7 -57 c10 -80 -4 -111 -123 -283 -198 -285
-293 -478 -301 -610 -4 -69 -2 -80 28 -135 17 -33 57 -96 88 -140 67 -94 334
-365 409 -415 47 -32 53 -39 53 -72 0 -35 5 -40 106 -114 232 -169 344 -315
387 -509 38 -168 67 -621 67 -1057 l0 -247 28 -3 c26 -3 27 -5 24 -53 -12
-188 -108 -995 -162 -1355 -88 -578 -122 -716 -320 -1275 -83 -236 -186 -531
-227 -655 l-75 -225 -73 -70 c-87 -84 -115 -123 -115 -163 0 -27 26 -52 255
-244 278 -233 283 -236 411 -237 57 -1 74 3 87 17 35 39 22 69 -60 133 -40 33
-83 80 -115 128 -28 42 -73 106 -100 143 l-50 68 30 37 c16 21 83 119 149 218
237 357 400 668 503 960 47 133 183 620 315 1125 176 677 254 940 276 940 66
0 353 -1601 390 -2182 15 -230 1 -528 -48 -1058 -14 -151 -27 -320 -30 -375
-5 -92 -3 -102 17 -127 l21 -28 413 0 413 0 21 23 c60 64 4 99 -331 213 -103
35 -192 66 -196 69 -6 3 -6 18 0 38 18 65 89 421 113 569 147 916 136 1459
-50 2428 -53 275 -185 880 -209 961 -4 11 9 20 46 33 51 19 51 19 45 55 -15
95 -78 580 -101 781 -32 274 -44 559 -25 614 26 81 167 225 326 333 l83 56
-24 32 -25 31 68 49 c154 112 403 389 484 540 85 157 15 342 -308 813 l-84
124 0 79 0 79 315 0 315 0 0 1705 0 1705 -706 0 -707 0 75 78 c81 85 119 152
143 254 47 201 -20 445 -158 574 -78 73 -143 109 -243 134 -90 23 -236 26
-330 5z m356 -53 c169 -60 264 -156 318 -321 22 -65 25 -95 26 -206 l1 -130
-43 -87 c-48 -98 -113 -172 -206 -234 l-59 -39 746 -3 747 -2 0 -1670 0 -1670
-391 0 -392 0 -45 42 c-48 44 -62 40 -43 -12 l10 -30 -251 0 -251 0 53 52 c66
65 103 123 132 207 19 55 23 86 23 191 -1 148 -13 208 -67 312 -67 130 -189
223 -343 263 -85 22 -253 20 -347 -4 -161 -41 -286 -134 -351 -259 -47 -90
-60 -156 -61 -292 0 -99 4 -126 27 -197 32 -94 93 -184 163 -237 l47 -36 -367
0 c-359 0 -366 0 -356 19 12 24 13 51 2 51 -5 0 -27 -16 -49 -35 l-41 -35
-276 0 -276 0 -2 737 -3 736 -43 -61 c-82 -117 -177 -183 -326 -226 -209 -61
-434 -15 -566 117 -61 62 -91 109 -121 197 -32 92 -32 287 0 374 32 89 64 137
131 199 137 127 349 177 541 128 120 -31 180 -63 260 -138 66 -63 106 -93 123
-93 3 0 6 306 6 680 l0 680 758 0 757 0 -61 35 c-182 103 -271 247 -281 455
-6 122 5 190 47 279 64 135 191 237 346 276 84 21 280 14 354 -13z m-45 -3377
c128 -33 253 -121 310 -220 60 -103 91 -300 66 -428 -25 -138 -113 -258 -240
-333 l-76 -44 335 0 335 0 46 -88 c25 -48 89 -170 142 -272 147 -282 227 -477
227 -551 0 -42 -36 -93 -122 -175 -107 -101 -212 -170 -358 -234 -67 -29 -72
-30 -287 -35 -120 -3 -255 -11 -301 -18 -45 -7 -85 -11 -87 -8 -3 2 -5 25 -5
51 0 45 2 48 40 65 48 22 106 82 127 134 37 85 45 139 50 316 4 174 5 182 34
240 56 116 48 206 -24 278 -76 76 -227 131 -392 143 -128 10 -171 -4 -261 -87
-45 -43 -82 -69 -96 -69 -42 0 -61 -26 -72 -99 -10 -65 13 -428 30 -483 17
-51 67 -102 113 -114 20 -4 35 -23 63 -80 l36 -74 -51 -95 -52 -95 -207 0
c-204 0 -209 1 -340 34 -73 19 -162 44 -197 55 -59 18 -66 19 -76 4 -11 -14
-19 -12 -75 22 -133 81 -261 199 -303 280 -40 78 46 285 353 853 l55 102 455
0 455 1 -80 41 c-103 54 -191 140 -233 228 -94 199 -47 504 97 632 52 46 159
100 241 122 74 20 250 20 325 1z m853 -1044 c18 -8 42 -25 52 -39 11 -13 20
-19 20 -11 0 7 -10 23 -22 36 -12 13 -20 25 -17 27 4 4 55 9 74 7 6 -1 10 -36
10 -84 l0 -82 137 -205 c152 -229 224 -358 262 -472 34 -101 34 -157 -2 -233
-66 -138 -305 -409 -476 -540 -67 -51 -80 -57 -90 -44 -6 8 -58 73 -116 143
-58 70 -106 130 -107 134 -1 4 38 24 87 45 188 81 360 205 453 326 47 62 49
67 43 113 -15 112 -125 363 -306 698 -49 91 -101 192 -115 224 l-26 60 53 -45
c29 -25 68 -51 86 -58z m-2146 -3 c-23 -46 -87 -166 -142 -268 -163 -302 -260
-533 -260 -620 0 -90 140 -226 384 -375 15 -9 14 -25 -13 -188 -16 -98 -32
-181 -35 -184 -10 -10 -134 94 -251 211 -205 206 -321 381 -319 482 3 130 100
322 339 671 l80 116 5 91 5 91 35 -3 c44 -5 58 -17 32 -31 -11 -6 -22 -20 -25
-31 -6 -25 4 -26 19 -2 7 10 41 35 78 57 36 21 73 47 83 57 31 34 26 8 -15
-74z m1040 -604 c122 -57 184 -74 272 -74 60 0 67 -2 52 -13 -10 -7 -17 -22
-14 -33 3 -15 15 -20 67 -26 35 -4 65 -9 68 -11 2 -2 -1 -55 -7 -117 -24 -258
-108 -370 -275 -370 -166 0 -282 103 -343 304 -24 80 -30 90 -58 102 -40 17
-84 69 -84 99 0 12 8 32 18 44 18 22 16 23 81 -17 17 -10 21 -10 21 1 0 7 7
37 15 65 16 53 47 92 74 92 8 0 59 -21 113 -46z m436 -78 c-2 -2 -23 -1 -48 2
l-44 4 44 23 45 23 3 -25 c2 -14 2 -26 0 -27z m-418 -552 c46 -23 68 -28 132
-29 l78 0 -2 -55 c-1 -30 2 -69 6 -87 12 -45 -26 -83 -82 -83 -76 0 -289 84
-340 134 -14 14 3 56 66 164 l25 43 31 -30 c17 -16 56 -42 86 -57z m-810 -71
c132 -36 140 -37 349 -41 l213 -4 59 -38 c113 -73 292 -132 354 -116 41 10 65
41 65 84 l0 38 93 13 c50 7 173 15 273 18 l181 6 151 -184 c84 -100 152 -186
152 -190 0 -3 -26 -23 -57 -44 -148 -98 -266 -212 -318 -306 -25 -47 -30 -67
-33 -150 -2 -53 3 -179 12 -280 16 -175 95 -824 116 -953 5 -34 10 -66 10 -73
0 -12 -117 -54 -220 -78 -127 -28 -217 -36 -435 -36 -197 1 -303 5 -611 27
l-91 7 -7 354 c-11 607 -38 895 -96 1043 -54 138 -201 305 -377 429 -61 43
-89 69 -87 80 4 19 74 450 74 456 0 2 21 -3 48 -11 26 -8 108 -31 182 -51z
m-378 -6020 c122 -103 147 -131 245 -278 34 -50 78 -106 100 -125 22 -19 54
-47 71 -63 35 -29 43 -71 16 -81 -21 -8 -133 -8 -175 1 -23 4 -107 69 -283
216 -138 115 -255 216 -259 223 -5 8 -5 24 -2 35 9 26 143 169 159 169 7 0 65
-44 128 -97z m2250 -350 c220 -74 341 -128 346 -156 9 -47 6 -47 -435 -47
l-414 0 -16 38 c-14 32 -14 48 -3 127 7 50 14 93 17 98 2 4 72 7 155 7 l150 0
200 -67z"/>
<path d="M3300 7647 c-28 -14 -37 -41 -21 -61 8 -10 23 -9 76 3 66 15 81 31
53 59 -16 16 -76 15 -108 -1z"/>
<path d="M3555 7544 c-21 -21 -30 -59 -30 -127 1 -61 11 -77 51 -77 51 0 67
63 39 157 -17 55 -36 71 -60 47z m45 -52 c13 -50 13 -115 -2 -130 -46 -46 -78
61 -43 144 17 42 30 38 45 -14z"/>
<path d="M3697 7544 c-15 -15 -7 -45 11 -42 9 2 17 12 17 22 0 20 -16 31 -28
20z"/>
<path d="M3410 7525 c0 -21 30 -31 40 -14 11 17 3 29 -21 29 -10 0 -19 -7 -19
-15z"/>
<path d="M3404 7307 c-7 -20 20 -66 54 -91 36 -28 117 -32 162 -9 68 35 41 90
-37 77 -24 -4 -54 0 -83 11 -73 27 -89 29 -96 12z m72 -23 c24 -10 64 -16 102
-15 48 1 62 -2 62 -13 0 -26 -42 -46 -98 -46 -48 0 -58 4 -88 34 -54 54 -46
68 22 40z"/>
</g>
</svg>
