<svg xmlns="http://www.w3.org/2000/svg" width="137.944" height="137.944" viewBox="0 0 137.944 137.944"><g fill="none"><path d="M68.972,0A68.972,68.972,0,1,1,0,68.972,68.972,68.972,0,0,1,68.972,0Z" stroke="none"/><path d="M 68.971923828125 14.99999237060547 C 39.21169281005859 14.99999237060547 14.99999237060547 39.21169281005859 14.99999237060547 68.971923828125 C 14.99999237060547 98.73216247558594 39.21169281005859 122.9438552856445 68.971923828125 122.9438552856445 C 88.00379180908203 122.9438552856445 105.8338928222656 112.7491226196289 115.5041198730469 96.33805847167969 C 120.3712615966797 88.07826232910156 122.9438552856445 78.61518859863281 122.9438552856445 68.971923828125 C 122.9438552856445 39.21169281005859 98.73216247558594 14.99999237060547 68.971923828125 14.99999237060547 M 68.971923828125 -1.52587890625e-05 C 107.0640563964844 -1.52587890625e-05 137.9438629150391 30.87979125976563 137.9438629150391 68.971923828125 C 137.9438629150391 81.73275756835938 134.4783935546875 93.68418884277344 128.4273834228516 103.953125 C 116.4450225830078 124.2880249023438 94.30322265625 137.9438629150391 68.971923828125 137.9438629150391 C 30.87979125976563 137.9438629150391 -1.52587890625e-05 107.0640563964844 -1.52587890625e-05 68.971923828125 C -1.52587890625e-05 30.87979125976563 30.87979125976563 -1.52587890625e-05 68.971923828125 -1.52587890625e-05 Z" stroke="none" fill="#a5b8ff"/></g></svg>