<svg xmlns="http://www.w3.org/2000/svg" width="251" height="513" viewBox="0 0 251 513"><g transform="translate(-68 -66) rotate(90)"><path d="M66-193.5V-68H579V-319H523c-30.8,0-56,.2-56,.4a23.483,23.483,0,0,0,3.9,2.9A45.508,45.508,0,0,1,486.3-298c2.8,5.9,3.1,7.4,3.1,15.5-.2,19.2-10.2,32.8-28.3,38.5-7.7,2.4-13.1,2.5-21.6.4-12-3-22.3-11.9-26.5-23.1-1.8-4.5-2.3-7.9-2.2-14.8,0-14.6,4.6-23.9,16.2-32.6,3-2.3,5.7-4.3,5.9-4.5s-49.4-.4-110.3-.4H211.9l6.3,4.8c15.2,11.4,20.5,29.6,13.8,47.4-2.4,6.4-9.6,14.9-15.6,18.4s-15.6,6.4-21.3,6.4c-10.2,0-22.3-5.3-29.3-12.7-7.9-8.5-10.3-15.6-9.6-29.2.3-7.4.9-9.9,3.6-15.3,3-6.1,8.4-12.2,15.7-17.5l3-2.2-56.2-.1H66Zm98.3-117.2c-8.9,9.4-11.8,17.8-11.1,32,.7,12.6,3.8,19.6,12.3,27.6,10.9,10.1,26.3,14.3,39.1,10.6,22.5-6.5,35.3-24.6,33-46.9-.8-8.4-6.3-19.2-12.3-24.5l-4.6-4.1H322l.2,53.5.3,53.6,3.5-2.6c13.7-10.3,29.1-12.8,43.9-7.3,7.9,3,18.1,13.2,21,21.2,8.5,23.1-2.6,46-25.4,52.7a68.294,68.294,0,0,1-13.5,1.4c-10.3,0-17.2-2.8-25-10.1l-5-4.7V-71H69V-316H169.3Zm256.6-2c-9.1,8.1-12.9,17.2-12.9,31.2,0,5,.6,11.3,1.4,13.9,5.9,19.5,30.4,32.8,50.2,27.1,18.5-5.3,29.8-17.6,32.5-35.3,2-13.6-1.8-25.5-11.2-35.1l-5-5.1H576V-71H325v-80.4l2.8,2.6c9,8.5,25.7,11,40.4,5.9,8.3-2.9,11.2-4.6,16.5-10,12.7-12.9,15.6-32,7.4-48.6-11.2-22.6-40.7-30.3-62.2-16a23.19,23.19,0,0,1-4.4,2.5c-.3,0-.5-22.7-.5-50.5V-316h99.5Z"/></g></svg>