<?xml version="1.0" standalone="no"?>
<!DOCTYPE svg PUBLIC "-//W3C//DTD SVG 20010904//EN"
 "http://www.w3.org/TR/2001/REC-SVG-20010904/DTD/svg10.dtd">
<svg version="1.0" xmlns="http://www.w3.org/2000/svg"
 width="733.000000pt" height="658.000000pt" viewBox="0 0 733.000000 658.000000"
 preserveAspectRatio="xMidYMid meet">

<g transform="translate(0.000000,658.000000) scale(0.100000,-0.100000)"
fill="#000000" stroke="none">
<path d="M3710 5232 l0 -519 -47 44 c-27 25 -75 58 -108 76 -104 53 -290 50
-405 -8 -99 -50 -171 -139 -205 -252 -19 -61 -19 -212 -1 -278 60 -218 282
-344 518 -294 77 17 146 54 206 112 l52 51 0 -506 c0 -452 -2 -507 -16 -512
-9 -3 -255 -6 -547 -6 l-532 -1 30 -22 c156 -114 218 -254 185 -419 -31 -162
-139 -268 -317 -313 -137 -35 -318 37 -402 159 -73 105 -83 295 -23 411 26 52
84 116 137 151 l50 34 -563 0 -562 0 0 -1255 0 -1255 2565 0 2565 0 0 2560 0
2560 -1290 0 -1290 0 0 -518z m2550 -792 l0 -1290 -552 0 -553 -1 30 -22 c74
-53 134 -121 166 -185 32 -64 34 -72 34 -177 0 -100 -2 -115 -28 -167 -71
-145 -261 -247 -408 -219 -144 26 -253 100 -306 209 -26 52 -28 67 -28 167 1
157 20 204 131 313 l84 82 -540 0 -540 0 0 563 0 562 -38 -60 c-51 -80 -118
-137 -195 -166 -87 -34 -235 -33 -321 1 -68 26 -145 92 -183 157 -68 116 -73
312 -11 436 42 85 144 160 252 186 79 19 194 15 259 -9 65 -25 156 -102 199
-169 l28 -45 0 562 0 562 1260 0 1260 0 0 -1290z m-4095 -1352 c-52 -45 -90
-105 -115 -179 -29 -84 -25 -225 9 -310 70 -182 310 -295 501 -236 87 26 178
85 227 147 66 83 86 145 87 265 1 93 -1 105 -31 168 -18 37 -55 92 -84 122
l-52 55 507 0 506 0 0 -540 0 -540 64 44 c103 70 163 89 276 84 82 -3 104 -8
154 -33 160 -81 248 -252 217 -422 -25 -134 -101 -231 -228 -291 -53 -24 -69
-27 -173 -27 -107 0 -119 2 -173 29 -32 17 -76 49 -97 73 l-40 43 0 -440 0
-440 -1265 0 -1265 0 0 1230 0 1230 505 0 506 0 -36 -32z"/>
</g>
</svg>
