<?xml version="1.0" standalone="no"?>
<!DOCTYPE svg PUBLIC "-//W3C//DTD SVG 20010904//EN"
 "http://www.w3.org/TR/2001/REC-SVG-20010904/DTD/svg10.dtd">
<svg version="1.0" xmlns="http://www.w3.org/2000/svg"
 width="586.000000pt" height="322.000000pt" viewBox="0 0 586.000000 322.000000"
 preserveAspectRatio="xMidYMid meet">

<g transform="translate(0.000000,322.000000) scale(0.100000,-0.100000)"
fill="#000000" stroke="none">
<path d="M360 1575 l0 -1255 2565 0 2565 0 0 1255 0 1255 -560 0 c-308 0 -560
-2 -560 -4 0 -2 18 -15 39 -29 64 -42 120 -107 154 -177 28 -59 31 -74 31
-155 -2 -192 -102 -328 -283 -385 -77 -24 -131 -25 -216 -4 -120 30 -223 119
-265 231 -18 45 -23 79 -22 148 0 146 46 239 162 326 30 23 57 43 59 45 2 2
-494 4 -1103 4 l-1107 0 63 -48 c152 -114 205 -296 138 -474 -24 -64 -96 -149
-156 -184 -60 -35 -156 -64 -213 -64 -102 0 -223 53 -293 127 -79 85 -103 156
-96 292 3 74 9 99 36 153 30 61 84 122 157 175 l30 22 -562 1 -563 0 0 -1255z
m3549 1192 c-91 -81 -129 -172 -129 -312 0 -50 6 -113 14 -139 59 -195 304
-328 502 -271 185 53 298 176 325 353 20 136 -18 255 -112 351 l-50 51 500 0
501 0 0 -1225 0 -1225 -1255 0 -1255 0 0 402 0 402 28 -26 c90 -85 257 -110
404 -59 83 29 112 46 165 100 127 129 156 320 74 486 -112 226 -407 303 -622
160 -21 -14 -41 -25 -44 -25 -3 0 -5 227 -5 505 l0 505 498 0 497 0 -36 -33z"/>
</g>
</svg>
